<svg xmlns="http://www.w3.org/2000/svg" width="426.172" height="71.345" viewBox="0 0 426.172 71.345">
  <g id="menu-hamburger" transform="translate(-986 -129.627)">
    <g id="svgGroup" transform="translate(1147 130.1)">
      <path id="Path_1" data-name="Path 1" d="M61,0H73.2V69.5H61.8V21.9L40.6,69.5H32.7L11.4,21.9V69.5H0V0H12.3L36.7,54.5ZM200.3,37V69.5H189V38.7a23.737,23.737,0,0,0-.38-4.387,15.319,15.319,0,0,0-1.5-4.414A11.935,11.935,0,0,0,185.3,27.35a12.2,12.2,0,0,0-6.891-3.671A17.668,17.668,0,0,0,175.2,23.4a16.733,16.733,0,0,0-4.406.55,12.166,12.166,0,0,0-5.744,3.4,12.766,12.766,0,0,0-2.926,5.171,19.588,19.588,0,0,0-.766,4.39q-.059.893-.058,1.789V69.5H149.9V14.4h11.4v6.3a18.6,18.6,0,0,1,6.217-4.866q.461-.228.933-.434a22.857,22.857,0,0,1,9.25-1.9,26.83,26.83,0,0,1,6.885.854A22.765,22.765,0,0,1,189.35,16.2a19.2,19.2,0,0,1,8.05,8,26.191,26.191,0,0,1,2.9,12.595Q200.3,36.9,200.3,37Zm53-22.6h11.4V69.5H253.3V63a17.962,17.962,0,0,1-5.6,4.637q-.71.383-1.447.713A22.355,22.355,0,0,1,237,70.3a26.831,26.831,0,0,1-6.885-.854A22.765,22.765,0,0,1,225.35,67.6a19.506,19.506,0,0,1-8.1-8,25.952,25.952,0,0,1-2.95-12.8V14.4h11.3V45.1a23.734,23.734,0,0,0,.38,4.387,15.32,15.32,0,0,0,1.5,4.414A11.934,11.934,0,0,0,229.3,56.45a12.2,12.2,0,0,0,6.891,3.671,17.669,17.669,0,0,0,3.209.279,16.733,16.733,0,0,0,4.406-.55,12.166,12.166,0,0,0,5.744-3.4,12.766,12.766,0,0,0,2.926-5.171,19.587,19.587,0,0,0,.766-4.39Q253.3,46,253.3,45.1Zm-115,31.8H96.2a15.146,15.146,0,0,0,14.712,14.576q.494.024.988.024a17.017,17.017,0,0,0,5.281-.771A12.867,12.867,0,0,0,124.9,53.1h12.3a24.82,24.82,0,0,1-9.05,12.45,24.286,24.286,0,0,1-10.224,4.328,33.344,33.344,0,0,1-6.026.522,28.14,28.14,0,0,1-14.15-3.55,25.258,25.258,0,0,1-9.8-10,28.462,28.462,0,0,1-3.2-9.838A36.559,36.559,0,0,1,84.4,41.9a35.5,35.5,0,0,1,.849-7.929,28.086,28.086,0,0,1,2.6-7.021A24.263,24.263,0,0,1,97.55,17a27.477,27.477,0,0,1,10.386-3.278A34.531,34.531,0,0,1,111.9,13.5a30.544,30.544,0,0,1,8.13,1.046A25.926,25.926,0,0,1,125.8,16.9a24.025,24.025,0,0,1,9.5,9.55,27.164,27.164,0,0,1,3.131,9.8A34.314,34.314,0,0,1,138.7,40.6,35.642,35.642,0,0,1,138.3,46.2ZM96.3,37h30.5a14.833,14.833,0,0,0-.835-4.83A12.478,12.478,0,0,0,122.3,26.9a15.525,15.525,0,0,0-8.728-3.688A20.53,20.53,0,0,0,111.4,23.1a14.641,14.641,0,0,0-10.1,3.75,14.857,14.857,0,0,0-4.463,7.386A20.111,20.111,0,0,0,96.3,37Z" fill="#fff" stroke="#fff" stroke-linecap="round" stroke-width="0.945" fill-rule="evenodd"/>
    </g>
    <line id="Line_1" data-name="Line 1" x2="100" transform="translate(993.5 145.5)" fill="none" stroke="#fff" stroke-linecap="square" stroke-width="15"/>
    <line id="Line_2" data-name="Line 2" x2="100" transform="translate(993.5 185.5)" fill="none" stroke="#fff" stroke-linecap="square" stroke-width="15"/>
  </g>
</svg>
