<svg xmlns="http://www.w3.org/2000/svg" width="57.316" height="73.423" viewBox="0 0 57.316 73.423">
  <g id="logo-crest" transform="translate(0.502 0.96)">
    <path id="Path_3" data-name="Path 3" d="M14.969,59.024A70.978,70.978,0,0,0,28.145,71.84a71.14,71.14,0,0,0,13.2-12.782L28.135,46.214Z" fill="#ed6d0b" stroke="#fff" stroke-width="1"/>
    <path id="Path_4" data-name="Path 4" d="M8.824,49.838,28.149,31.277,47.512,49.89a68.7,68.7,0,0,0,7.159-18.661c.066-.317.123-.63.189-.947H1.453A68.77,68.77,0,0,0,8.824,49.838Z" fill="#ed6d0b" stroke="#fff" stroke-width="1"/>
    <path id="Path_5" data-name="Path 5" d="M8.813,49.838a69.873,69.873,0,0,0,6.159,9.186l13.165-12.81L41.346,59.057A69.444,69.444,0,0,0,47.5,49.89L28.137,31.277Z" fill="#ed6d0b"/>
    <path id="Path_6" data-name="Path 6" d="M28.138,45.865,15,58.651a69.873,69.873,0,0,1-5.87-8.768l19.012-18.26,19.05,18.312a69.406,69.406,0,0,1-5.866,8.75Z"/>
    <path id="Path_7" data-name="Path 7" d="M28.137,31.97,46.874,49.982a69.179,69.179,0,0,1-5.578,8.33L28.486,45.855l-.349-.339-.349.339L15.021,58.278A69.614,69.614,0,0,1,9.439,49.93l18.7-17.96m0-.693L8.813,49.838a69.873,69.873,0,0,0,6.159,9.186l13.165-12.81L41.346,59.057A69.444,69.444,0,0,0,47.5,49.89L28.137,31.277Z" stroke="#fff" stroke-width="1"/>
    <path id="Path_8" data-name="Path 8" d="M56.065,10.489a24.6,24.6,0,0,1-7.187,1.066A24.116,24.116,0,0,1,28.16,0,24.13,24.13,0,0,1,7.437,11.555,24.7,24.7,0,0,1,.26,10.494a67.638,67.638,0,0,0,1.18,19.8H54.847a68,68,0,0,0,1.218-19.8Z" stroke="#fff" stroke-width="1"/>
    <path id="Path_9" data-name="Path 9" d="M41.314,18.658V16.389H39.926v-1.6l-1.454-.408h-.1V13.02s-.5.6-2.8.6c-2.179,0-3.459-.706-5.192-.706a2.364,2.364,0,0,0-2.179.952v.549h-.057v-.549a2.381,2.381,0,0,0-2.179-.952c-1.734,0-3.013.711-5.193.711-2.3,0-2.7-.6-2.7-.6v1.431h-.095l-1.578.332v1.6H15v2.269h1.393V22.33H15V24.6h1.393v2.823a33.885,33.885,0,0,0,4.5.365c2.554,0,4.027-.369,5.685-.4V28.1a3.848,3.848,0,0,0,1.559.332,4.25,4.25,0,0,0,1.616-.332v-.71c1.653.033,3.127.4,5.695.4a33.845,33.845,0,0,0,4.487-.365V24.6h1.388V22.33h-1.4V18.658Z" fill="#fff"/>
    <path id="Path_10" data-name="Path 10" d="M38.588,14.23l.007-1.739-.422.445s-.522.521-2.627.521L32.7,13.078l-2.345-.327a2.784,2.784,0,0,0-2.208.843,2.8,2.8,0,0,0-2.208-.843l-2.343.332-2.85.379c-2.07,0-2.5-.5-2.506-.5l-.429-.526L17.8,13.1v1.2l-1.689.355V27.7l.2.028a34.016,34.016,0,0,0,4.534.37,51.762,51.762,0,0,0,5.443-.374v.592l.133.071a4.1,4.1,0,0,0,1.668.355,4.459,4.459,0,0,0,1.717-.355l.14-.066v-.6A51.806,51.806,0,0,0,35.4,28.1a34.051,34.051,0,0,0,4.528-.37l.2-.028V14.665Zm-10.2-.166a2.142,2.142,0,0,1,1.966-.829l2.24.317,2.956.389a5.883,5.883,0,0,0,2.565-.417V25.858a7.157,7.157,0,0,1-2.565.379l-2.85-.379-2.345-.327a2.94,2.94,0,0,0-1.966.621Zm-10.1-.516a5.525,5.525,0,0,0,2.459.4L23.7,13.56l2.239-.322a2.156,2.156,0,0,1,1.966.829v12.09a2.957,2.957,0,0,0-1.985-.625l-2.345.332-2.829.374c-2.07,0-2.5-.5-2.506-.5s.037-11.366.042-12.191Zm21.37,13.733a33.043,33.043,0,0,1-4.247.332,53.518,53.518,0,0,1-5.668-.4l-.272-.038V28a4.067,4.067,0,0,1-1.374.251,3.815,3.815,0,0,1-1.317-.246v-.834l-.273.038a53.513,53.513,0,0,1-5.654.4,33.085,33.085,0,0,1-4.254-.332V15.044c.223-.042.883-.185,1.206-.251V25.877c.118.256.625.843,2.942.843l2.933-.384,2.241-.322a2.183,2.183,0,0,1,1.987.829l.069-.038h.346l.066.038a2.142,2.142,0,0,1,1.966-.829l2.24.318,2.956.388c2.349,0,2.935-.616,2.994-.687l.045-11.3c.308.085.872.242,1.068.3Z"/>
    <path id="Path_11" data-name="Path 11" d="M21.718,15.72a.416.416,0,0,0-.37.242l-.777,1.729a.148.148,0,0,1-.062.028c-.024,0-.052-.028-.071-.081s-.114-.3-.317-.777L19.87,16.3c-.09-.209-.161-.346-.185-.389a.374.374,0,0,0-.327-.189.08.08,0,0,1-.014-.052.112.112,0,0,1,.009-.052h.128c.147,0,.27.009.379.009.128,0,.341-.014.483-.014h.085c.014,0,.019.033.019.048a.127.127,0,0,1-.01.057c-.095.009-.308,0-.308.138a.332.332,0,0,0,.019.114l.512,1.213.426-1a.628.628,0,0,0,.057-.265c0-.114-.081-.166-.294-.189a.178.178,0,0,1-.014-.048.232.232,0,0,1,.014-.062h.062c.095,0,.189.014.4.014.038,0,.185-.009.256-.009h.147c.009.019.019.028.019.047A.135.135,0,0,1,21.718,15.72Z"/>
    <path id="Path_12" data-name="Path 12" d="M23.883,17.657c-.621,0-.957-.014-1.042-.014h-.294c-.076,0-.284.014-.5.014h-.123a.085.085,0,0,1-.009-.047.258.258,0,0,1,0-.057.823.823,0,0,0,.313-.066.594.594,0,0,0,.066-.313c0-.095,0-.2,0-.308v-.895c0-.223-.114-.223-.346-.251a.239.239,0,0,1-.009-.052c0-.014,0-.048.019-.052H23.73c.047,0,.066,0,.066.047l.028.464a.1.1,0,0,1-.057.019.149.149,0,0,1-.047,0,.919.919,0,0,0-.308-.355.322.322,0,0,0-.18-.052h-.507c-.019,0-.019,0-.028.081,0,.047-.009.142-.009.412V16.5h.071a.993.993,0,0,0,.232-.024.392.392,0,0,0,.208-.147.921.921,0,0,0,.048-.171.125.125,0,0,1,.066-.014.1.1,0,0,1,.052.014c0,.085-.019.242-.019.441,0,.1.009.318.009.408a.074.074,0,0,1-.057.014.237.237,0,0,1-.057,0c-.019-.175-.047-.294-.194-.355a.552.552,0,0,0-.227-.043.711.711,0,0,0-.138.009v.535a.665.665,0,0,0,.028.242.2.2,0,0,0,.123.114,1,1,0,0,0,.19.014h.294a.578.578,0,0,0,.223-.033,1.123,1.123,0,0,0,.327-.441.159.159,0,0,1,.062-.01.165.165,0,0,1,.062.014v.54C23.992,17.652,23.959,17.657,23.883,17.657Z"/>
    <path id="Path_13" data-name="Path 13" d="M26.347,16.255H26.29a1.286,1.286,0,0,0-.152-.3.485.485,0,0,0-.379-.2h-.2V17.28c0,.237.109.237.355.27a.113.113,0,0,1,.019.057.108.108,0,0,1-.014.052h-.09c-.142,0-.426-.009-.516-.009-.062,0-.374.014-.521.014a.075.075,0,0,1-.019-.057.123.123,0,0,1,.014-.052c.327-.024.36-.085.37-.189.009-.066.009-.336.009-.611v-.748a1.273,1.273,0,0,0-.019-.251,1.409,1.409,0,0,0-.318.024.81.81,0,0,0-.412.45.191.191,0,0,1-.052,0,.055.055,0,0,1-.047-.019v-.526c0-.047,0-.062.061-.062h.967c.493,0,.857-.014.952-.014.047,0,.081,0,.1.019a.4.4,0,0,1,0,.076v.526A.056.056,0,0,1,26.347,16.255Z"/>
    <path id="Path_14" data-name="Path 14" d="M21.618,19.462h-.062a1,1,0,0,0-.152-.3.476.476,0,0,0-.379-.2h-.2v1.521c0,.237.114.237.36.27a.136.136,0,0,1,0,.109H21.1c-.147,0-.431-.009-.516-.009-.062,0-.374.014-.526.014a.1.1,0,0,1-.014-.057.252.252,0,0,1,.009-.052c.327-.024.36-.085.374-.189V19.2a1.3,1.3,0,0,0-.014-.251,1.451,1.451,0,0,0-.322.024.8.8,0,0,0-.407.45.246.246,0,0,1-.057,0,.061.061,0,0,1-.047-.019v-.526c0-.048.009-.062.062-.062h.972c.488,0,.857-.014.947-.014.052,0,.085,0,.1.019s0,.048,0,.076v.526a.06.06,0,0,1-.043.039Z"/>
    <path id="Path_15" data-name="Path 15" d="M23.959,20.865c-.616,0-.957-.014-1.037-.014h-.3c-.082,0-.284.014-.5.014H22a.093.093,0,0,1-.014-.048A.13.13,0,0,1,22,20.751a.763.763,0,0,0,.308-.066c.038-.042.057-.128.066-.313,0-.095.009-.2.009-.308v-.9c0-.223-.109-.223-.341-.251a.124.124,0,0,1-.014-.052c0-.014.009-.047.024-.052h1.767c.052,0,.071,0,.071.048l.024.464a.092.092,0,0,1-.057.019.174.174,0,0,1-.047,0A.851.851,0,0,0,23.49,19a.309.309,0,0,0-.175-.052h-.507c-.015,0-.024,0-.033.081V19.7h.066a.948.948,0,0,0,.232-.024.4.4,0,0,0,.213-.147.894.894,0,0,0,.043-.171.151.151,0,0,1,.066-.014.1.1,0,0,1,.057.014c0,.085-.024.242-.024.441,0,.1.014.317.014.407a.079.079,0,0,1-.057.014.265.265,0,0,1-.062,0c-.019-.175-.042-.294-.194-.355a.545.545,0,0,0-.223-.043,1.31,1.31,0,0,0-.138.009v.535a.84.84,0,0,0,.024.242.242.242,0,0,0,.123.114,1.075,1.075,0,0,0,.189.014h.3a.557.557,0,0,0,.218-.033,1.087,1.087,0,0,0,.332-.441.151.151,0,0,1,.062-.009.142.142,0,0,1,.057.014v.54C24.068,20.86,24.035,20.865,23.959,20.865Z"/>
    <path id="Path_16" data-name="Path 16" d="M25.4,20.912a1.158,1.158,0,0,1-.474-.123.225.225,0,0,0-.076-.019.425.425,0,0,0-.152.081.13.13,0,0,1-.118-.062c0-.043.038-.171.038-.251,0-.047-.014-.279-.019-.332a.11.11,0,0,1,.09-.043h.033a4.29,4.29,0,0,0,.189.4.636.636,0,0,0,.455.213.442.442,0,0,0,.332-.1.287.287,0,0,0,.114-.246.263.263,0,0,0-.057-.185.494.494,0,0,0-.213-.152c-.09-.043-.408-.123-.521-.185a.823.823,0,0,1-.284-.2.626.626,0,0,1-.118-.374.584.584,0,0,1,.63-.573.756.756,0,0,1,.488.142,1.4,1.4,0,0,1,.119-.119.11.11,0,0,1,.109.057,2.237,2.237,0,0,0-.033.279c0,.052.033.27.033.3a.2.2,0,0,1-.081.028.14.14,0,0,1-.038-.009c-.057-.1-.109-.265-.171-.355a.462.462,0,0,0-.408-.175.336.336,0,0,0-.37.3.34.34,0,0,0,.251.3c.085.033.189.071.308.109a2.793,2.793,0,0,1,.327.123.561.561,0,0,1,.336.54.663.663,0,0,1-.719.631Z"/>
    <path id="Path_17" data-name="Path 17" d="M22.443,24.077c-.62,0-.957-.014-1.042-.014h-.294c-.076,0-.284.014-.5.014h-.123a.086.086,0,0,1-.009-.048.244.244,0,0,1,0-.057.83.83,0,0,0,.313-.066.6.6,0,0,0,.066-.313c0-.095,0-.2,0-.308v-.9c0-.223-.114-.223-.346-.251a.252.252,0,0,1-.009-.052c0-.014,0-.048.019-.052H22.29c.048,0,.066,0,.066.048l.028.464a.1.1,0,0,1-.057.019.143.143,0,0,1-.047,0,.92.92,0,0,0-.308-.355.323.323,0,0,0-.18-.052h-.507c-.019,0-.019,0-.029.081,0,.047-.009.142-.009.412v.265h.071a.993.993,0,0,0,.232-.024.394.394,0,0,0,.209-.147.9.9,0,0,0,.047-.171.126.126,0,0,1,.066-.014.1.1,0,0,1,.052.014c0,.085-.019.242-.019.441,0,.1.009.317.009.408a.074.074,0,0,1-.057.014.238.238,0,0,1-.057,0c-.019-.175-.047-.294-.194-.355a.553.553,0,0,0-.228-.043,1.3,1.3,0,0,0-.137.009v.535a.665.665,0,0,0,.028.242.2.2,0,0,0,.123.114,1.028,1.028,0,0,0,.189.014h.294a.584.584,0,0,0,.223-.033,1.127,1.127,0,0,0,.327-.441.165.165,0,0,1,.123,0v.54C22.552,24.072,22.519,24.077,22.443,24.077Z"/>
    <path id="Path_18" data-name="Path 18" d="M25.428,22.13c-.208.01-.389.123-.389.455v1.052c0,.043.019.341.019.455a.217.217,0,0,1-.085.033.139.139,0,0,1-.052-.033l-1.445-1.554.014.318v.573c0,.043.009.152.019.232a.26.26,0,0,0,.1.218.529.529,0,0,0,.275.09.091.091,0,0,1,.014.047.117.117,0,0,1-.019.052h-.53c-.09,0-.218.009-.308.009h-.066a.181.181,0,0,1,0-.047.133.133,0,0,1,.009-.052.5.5,0,0,0,.327-.142.682.682,0,0,0,.033-.246v-.74c0-.118,0-.18-.009-.294a.358.358,0,0,0-.071-.223.739.739,0,0,0-.1-.109,1.177,1.177,0,0,0-.232-.1.157.157,0,0,1-.014-.047.108.108,0,0,1,.014-.052h.052c.043,0,.265.009.436.009h.1a.2.2,0,0,1,.062.043l1.071,1.17c.081.09.185.208.242.284v-.843a1.527,1.527,0,0,0-.009-.237.563.563,0,0,0-.062-.218c-.033-.052-.232-.081-.336-.1a.139.139,0,0,1-.009-.061.16.16,0,0,1,0-.043h.062c.1,0,.261.014.36.014.246,0,.322-.009.445-.009h.081a.112.112,0,0,1,.009.052A.093.093,0,0,1,25.428,22.13Z"/>
    <path id="Path_19" data-name="Path 19" d="M32.179,15.71c-.2.009-.389.123-.389.455v1.052c0,.042.014.341.014.455a.2.2,0,0,1-.081.033c-.014,0-.028-.014-.057-.033l-1.445-1.554.019.318v.573c0,.043.009.152.014.232a.288.288,0,0,0,.1.218.556.556,0,0,0,.275.09.091.091,0,0,1,.014.047.173.173,0,0,1-.014.052h-.535c-.09,0-.213.009-.3.009h-.066a.2.2,0,0,1-.009-.047.1.1,0,0,1,.014-.052.5.5,0,0,0,.322-.142.589.589,0,0,0,.033-.246V16.136a.392.392,0,0,0-.071-.223.918.918,0,0,0-.1-.109,1.069,1.069,0,0,0-.232-.1.375.375,0,0,1-.009-.047.2.2,0,0,1,.009-.052h.057c.038,0,.261.009.431.009h.1a.31.31,0,0,1,.066.043l1.071,1.17c.081.09.185.208.242.284v-.843a2.026,2.026,0,0,0-.014-.237.493.493,0,0,0-.062-.218c-.033-.052-.232-.081-.332-.1a.146.146,0,0,1-.014-.062.087.087,0,0,1,.009-.043H31.3c.1,0,.261.014.36.014.242,0,.322-.01.445-.01h.076a.126.126,0,0,1,.014.052.107.107,0,0,1-.016.046Z"/>
    <path id="Path_20" data-name="Path 20" d="M34.306,17.4a1.018,1.018,0,0,1-1.445.014,1.134,1.134,0,0,1,0-1.554,1.019,1.019,0,0,1,.72-.308,1.1,1.1,0,0,1,.54.152,1.073,1.073,0,0,1,.5.91,1.135,1.135,0,0,1-.315.786Zm-.332-1.5a.478.478,0,0,0-.407-.213.437.437,0,0,0-.379.213,1.183,1.183,0,0,0-.189.725,1.231,1.231,0,0,0,.18.715.453.453,0,0,0,.4.227.475.475,0,0,0,.445-.279,1.328,1.328,0,0,0,.133-.659,1.193,1.193,0,0,0-.183-.729Z"/>
    <path id="Path_21" data-name="Path 21" d="M37.215,15.72a.414.414,0,0,0-.365.242l-.777,1.729a.149.149,0,0,1-.062.028c-.024,0-.057-.028-.071-.081s-.114-.3-.322-.777l-.246-.564c-.09-.209-.161-.346-.185-.389a.379.379,0,0,0-.327-.189.065.065,0,0,1-.019-.052.079.079,0,0,1,.014-.052h.128c.142,0,.265.009.374.009.128,0,.341-.014.488-.014h.081c.019,0,.024.033.024.048a.13.13,0,0,1-.009.057c-.1.009-.308,0-.308.138a.249.249,0,0,0,.019.114l.507,1.213.431-1a.685.685,0,0,0,.052-.265c0-.114-.081-.166-.294-.189a.174.174,0,0,1-.009-.048.247.247,0,0,1,.009-.062h.062c.1,0,.19.014.408.014.033,0,.185-.009.256-.009h.147a.091.091,0,0,1,0,.1Z"/>
    <path id="Path_22" data-name="Path 22" d="M31.511,19.462h-.062a1,1,0,0,0-.152-.3.475.475,0,0,0-.379-.2h-.2v1.521c0,.237.114.237.36.27a.136.136,0,0,1,0,.109h-.09c-.147,0-.431-.009-.516-.009-.062,0-.374.014-.526.014a.1.1,0,0,1-.014-.057.236.236,0,0,1,.009-.052c.327-.024.36-.085.374-.189V19.2a1.317,1.317,0,0,0-.014-.251,1.453,1.453,0,0,0-.322.024.8.8,0,0,0-.407.45.245.245,0,0,1-.057,0,.061.061,0,0,1-.047-.019v-.526c0-.048.009-.062.062-.062h.972c.488,0,.857-.014.947-.014.052,0,.085,0,.1.019s0,.048,0,.076v.526a.06.06,0,0,1-.043.039Z"/>
    <path id="Path_23" data-name="Path 23" d="M33.965,20.865H33.8c-.1,0-.223-.014-.346-.014-.194,0-.441.014-.535.014a.077.077,0,0,1-.014-.052.165.165,0,0,1,.009-.048c.2-.009.279-.042.279-.123a.7.7,0,0,0-.062-.265c-.062-.152-.1-.218-.109-.256-.009-.014-.014-.024-.057-.024H32.32a1.414,1.414,0,0,0-.152.393.451.451,0,0,0-.014.118c0,.066.062.142.289.147a.1.1,0,0,1,.014.057.174.174,0,0,1,0,.047H32.4c-.152,0-.194-.009-.355-.009-.1,0-.355.009-.441.009a.135.135,0,0,1-.009-.043.122.122,0,0,1,.009-.052.441.441,0,0,0,.294-.152,3.254,3.254,0,0,0,.261-.53c.114-.275.251-.621.313-.763.085-.18.114-.237.142-.3.043-.09.09-.18.109-.213a.126.126,0,0,1,.081-.038.117.117,0,0,1,.09.043.579.579,0,0,1,.047.1c.119.284.213.535.36.886.076.175.114.289.194.474.057.114.09.2.147.308.076.156.2.156.322.189,0,.014.019.028.019.047A.113.113,0,0,1,33.965,20.865ZM32.671,19.24h0c-.043.081-.119.256-.147.332-.109.265-.147.355-.166.393h.611C32.918,19.841,32.761,19.467,32.671,19.24Z"/>
    <path id="Path_24" data-name="Path 24" d="M37.129,20.865l-.829-.009h-.227a.146.146,0,0,1-.014-.052.065.065,0,0,1,.019-.052,1.063,1.063,0,0,0,.2-.019c.085-.038.118-.123.118-.246V19.012h0l-.436.957c-.047.1-.1.218-.152.332a4.29,4.29,0,0,0-.18.464.061.061,0,0,1-.066.038c-.028,0-.047-.009-.062-.057-.057-.123-.1-.2-.114-.256l-.682-1.5H34.69v.384l.014.957c0,.294.152.431.384.431a.162.162,0,0,1,.019.047.123.123,0,0,1-.014.052h-.1c-.038,0-.18-.014-.4-.014h-.426a.2.2,0,0,1-.01-.052.236.236,0,0,1,.01-.043,1.065,1.065,0,0,0,.3-.1c.043-.043.081-.128.081-.332V19.273c0-.166-.024-.232-.1-.289a1.017,1.017,0,0,0-.27-.052.143.143,0,0,1-.014-.057.165.165,0,0,1,.014-.057c.081,0,.223.009.365.009h.5a.123.123,0,0,1,.043.052l.611,1.383.109-.275c.1-.223.232-.559.426-.919.043-.081.1-.185.123-.237l.777-.014a.117.117,0,0,1,.019.052.108.108,0,0,1-.014.052c-.085.014-.232.014-.3.133-.024.038-.038.076-.038.242v.99c0,.379.1.417.138.445a.736.736,0,0,0,.208.028.108.108,0,0,1,.014.052C37.144,20.841,37.134,20.846,37.129,20.865Z"/>
    <path id="Path_25" data-name="Path 25" d="M31.463,22.675H31.4a1,1,0,0,0-.152-.3.476.476,0,0,0-.379-.2h-.2V23.7c0,.237.114.237.36.27a.136.136,0,0,1,0,.109h-.09c-.147,0-.431-.009-.516-.009-.062,0-.374.014-.526.014a.1.1,0,0,1-.014-.057.252.252,0,0,1,.009-.052c.327-.024.36-.085.374-.189v-1.36a1.3,1.3,0,0,0-.014-.251,1.451,1.451,0,0,0-.322.024.807.807,0,0,0-.408.45.243.243,0,0,1-.057,0,.061.061,0,0,1-.047-.019V22.1c0-.048.009-.062.062-.062h.972c.488,0,.857-.014.947-.014.052,0,.085,0,.1.019s0,.048,0,.076v.526A.061.061,0,0,1,31.463,22.675Z"/>
    <path id="Path_26" data-name="Path 26" d="M34.007,22.139a.414.414,0,0,0-.365.242l-.777,1.729a.148.148,0,0,1-.062.028c-.024,0-.057-.028-.071-.081s-.114-.3-.322-.777l-.246-.564c-.09-.208-.161-.346-.185-.388a.38.38,0,0,0-.327-.189.066.066,0,0,1-.019-.052.08.08,0,0,1,.014-.052h.128c.142,0,.265.009.374.009.128,0,.341-.014.488-.014h.081c.019,0,.024.033.024.048a.13.13,0,0,1-.009.057c-.1.009-.308,0-.308.137a.25.25,0,0,0,.019.114l.507,1.213.431-1a.687.687,0,0,0,.052-.265c0-.114-.081-.166-.294-.189a.165.165,0,0,1-.009-.048.236.236,0,0,1,.009-.062h.06c.1,0,.189.014.407.014.033,0,.185-.009.256-.009h.147a.091.091,0,0,1,0,.1Z"/>
    <path id="Path_27" data-name="Path 27" d="M37.172,24.077l-.824-.009h-.232a.121.121,0,0,1-.009-.052.063.063,0,0,1,.014-.052,1.09,1.09,0,0,0,.208-.019c.081-.038.114-.123.114-.246V22.221h-.009L36,23.178c-.052.1-.1.218-.156.332-.1.223-.152.374-.18.464-.009.038-.042.038-.066.038s-.043-.009-.062-.057c-.052-.123-.09-.2-.109-.256l-.687-1.5h-.014v.384l.014.957c0,.294.152.431.388.431a.127.127,0,0,1,.014.047.111.111,0,0,1-.009.052h-.109c-.028,0-.175-.014-.393-.014h-.426A.108.108,0,0,1,34.194,24a.11.11,0,0,1,.014-.043,1.108,1.108,0,0,0,.3-.1.488.488,0,0,0,.076-.332V22.477c0-.166-.019-.232-.1-.289a1.028,1.028,0,0,0-.265-.052.1.1,0,0,1-.019-.057.115.115,0,0,1,.019-.057c.076,0,.223.009.36.009h.5a.115.115,0,0,1,.038.052l.611,1.383.114-.275a9.222,9.222,0,0,1,.426-.919c.038-.081.1-.185.123-.237l.772-.014c.009.019.024.033.024.052a.117.117,0,0,1-.019.052c-.081.014-.227.014-.3.133-.024.038-.043.076-.043.242v.99c0,.379.1.417.142.445a.666.666,0,0,0,.2.028.08.08,0,0,1,.019.052A.073.073,0,0,1,37.172,24.077Z"/>
  </g>
</svg>
