<svg xmlns="http://www.w3.org/2000/svg" width="384.638" height="78.782" viewBox="0 0 384.638 78.782">
  <g id="menu-hamburger-close" transform="translate(-1152.564 -124.107)">
    <g id="svgGroup" transform="translate(1153.037 128.5)">
      <path id="Path_2" data-name="Path 2" d="M63.727,23.028H50.85A17.264,17.264,0,0,0,43.8,15.321a19.713,19.713,0,0,0-7.214-2.337,25.115,25.115,0,0,0-3.219-.2,24.653,24.653,0,0,0-6.85.922A21.216,21.216,0,0,0,21.807,15.7a20.26,20.26,0,0,0-7.9,8.281l-.045.085a24.658,24.658,0,0,0-2.512,7.821A32.279,32.279,0,0,0,11,36.75a30.918,30.918,0,0,0,.673,6.593,24.016,24.016,0,0,0,2.194,6.1,20.593,20.593,0,0,0,7.942,8.412,22.516,22.516,0,0,0,11.561,2.961A20.918,20.918,0,0,0,43.8,58.274a17.264,17.264,0,0,0,7.049-7.707H63.727A30.01,30.01,0,0,1,57.4,60.627a28.587,28.587,0,0,1-5.47,4.415A33.651,33.651,0,0,1,35.98,70.035q-1.3.082-2.612.082a33.761,33.761,0,0,1-16.824-4.277A31.885,31.885,0,0,1,4.466,53.951a32.746,32.746,0,0,1-4.4-14.835Q0,37.935,0,36.75a33.363,33.363,0,0,1,4.465-17.2A31.789,31.789,0,0,1,16.59,7.66,33.838,33.838,0,0,1,33.368,3.384,36.2,36.2,0,0,1,44.874,5.166a32.382,32.382,0,0,1,7.057,3.34A29.168,29.168,0,0,1,63.727,23.028Zm94.461,30.641h11.091a7.392,7.392,0,0,0,2.553,5q.288.259.6.5a10.433,10.433,0,0,0,4.51,1.971,14.462,14.462,0,0,0,2.681.238,18.949,18.949,0,0,0,2.622-.17,9.967,9.967,0,0,0,4.38-1.569,5.247,5.247,0,0,0,2.491-4.465,4.585,4.585,0,0,0-2.773-4.324q-.89-.446-1.816-.815a69.362,69.362,0,0,0-6.972-2.287q-1.884-.515-3.751-1.087-3.337-1.027-5.742-2.014a16.642,16.642,0,0,1-6.344-4.606,10.666,10.666,0,0,1-2.3-4.648,15.634,15.634,0,0,1-.377-3.514q0-.008,0-.015a12.752,12.752,0,0,1,2.444-7.566,14.919,14.919,0,0,1,4.119-3.875,19.818,19.818,0,0,1,2.884-1.529,23.51,23.51,0,0,1,5.894-1.648,31.036,31.036,0,0,1,4.586-.326q7.962,0,13.137,3.625.568.4,1.1.839a15.633,15.633,0,0,1,5.623,10.41q.115.877.157,1.761H188.265a8.436,8.436,0,0,0-.719-2.862,7.439,7.439,0,0,0-2.1-2.683,8.674,8.674,0,0,0-3.2-1.614,13.677,13.677,0,0,0-3.661-.454,14.121,14.121,0,0,0-4.664.675,7.368,7.368,0,0,0-1.822.923,4.947,4.947,0,0,0-2.256,4.23,4.563,4.563,0,0,0,1.367,3.344q.067.068.137.133a10.712,10.712,0,0,0,3.666,2.209q1.655.612,4.523,1.471.933.28,1.869.55,1.945.516,3.869,1.111a55.9,55.9,0,0,1,5.389,1.944,17.235,17.235,0,0,1,6.25,4.559,10.594,10.594,0,0,1,2.282,4.465,15.516,15.516,0,0,1,.441,3.405q0,.06,0,.119a13.4,13.4,0,0,1-2.444,7.9,15.236,15.236,0,0,1-4.556,4.222,19.63,19.63,0,0,1-2.353,1.229,22.347,22.347,0,0,1-5.347,1.569,30.925,30.925,0,0,1-5.133.405,29.015,29.015,0,0,1-6.133-.623,23.521,23.521,0,0,1-4.817-1.586,21.133,21.133,0,0,1-4.573-2.8,17.715,17.715,0,0,1-3.088-3.217A14.994,14.994,0,0,1,158.188,53.669Zm100.1-6.015h-39.57a14.236,14.236,0,0,0,13.828,13.7q.464.023.929.023a15.994,15.994,0,0,0,4.964-.725,12.094,12.094,0,0,0,7.255-6.513h11.561a23.329,23.329,0,0,1-8.506,11.7,22.826,22.826,0,0,1-9.609,4.068,31.341,31.341,0,0,1-5.665.491,26.449,26.449,0,0,1-13.3-3.337,23.74,23.74,0,0,1-9.211-9.4,26.752,26.752,0,0,1-3.011-9.247,34.355,34.355,0,0,1-.326-4.8,33.366,33.366,0,0,1,.8-7.453,26.4,26.4,0,0,1,2.445-6.6,22.8,22.8,0,0,1,9.117-9.352,25.826,25.826,0,0,1,9.762-3.081,32.458,32.458,0,0,1,3.726-.209,28.708,28.708,0,0,1,7.641.983,24.368,24.368,0,0,1,5.423,2.213,22.581,22.581,0,0,1,8.929,8.976,25.53,25.53,0,0,1,2.943,9.207,32.254,32.254,0,0,1,.253,4.092A33.5,33.5,0,0,1,258.288,47.653ZM114.59,69a27.725,27.725,0,0,0,8.915,1.4q.26,0,.521,0a27.923,27.923,0,0,0,13.061-3.333,24.731,24.731,0,0,0,9.728-9.446,27.231,27.231,0,0,0,3.572-14,33.237,33.237,0,0,0-.191-3.6,26.61,26.61,0,0,0-3.287-10.4,24.021,24.021,0,0,0-9.493-9.4,26.086,26.086,0,0,0-4.506-1.94,28.891,28.891,0,0,0-8.935-1.35c-.617,0-1.229.017-1.84.052a27.062,27.062,0,0,0-11.6,3.238,24.021,24.021,0,0,0-9.493,9.4,25.631,25.631,0,0,0-2.5,6.12,30.575,30.575,0,0,0-.981,7.885,34.065,34.065,0,0,0,.3,4.574,26.571,26.571,0,0,0,3.086,9.478,23.969,23.969,0,0,0,9.305,9.4A25.251,25.251,0,0,0,114.59,69ZM76.228,0H86.943V69.553H76.228Zm47.277,61.094a15.945,15.945,0,0,0,7.754-1.974,14.607,14.607,0,0,0,5.059-4.622q.435-.632.816-1.3a19.038,19.038,0,0,0,2.256-9.587,24.51,24.51,0,0,0-.357-4.3,17.2,17.2,0,0,0-1.459-4.581q-.164-.336-.346-.664a15.617,15.617,0,0,0-2.948-3.844,13.781,13.781,0,0,0-2.786-2.03,15.68,15.68,0,0,0-7.707-1.974,15.418,15.418,0,0,0-7.66,1.974,14.089,14.089,0,0,0-5.592,5.874,20.159,20.159,0,0,0-2.068,9.54,26.278,26.278,0,0,0,.461,5.08,17.085,17.085,0,0,0,1.929,5.3,13.848,13.848,0,0,0,1.887,2.546A14.042,14.042,0,0,0,122.9,61.084Q123.2,61.094,123.505,61.094Zm95.307-22.088h28.667a13.942,13.942,0,0,0-.785-4.54,11.728,11.728,0,0,0-3.445-4.953,14.592,14.592,0,0,0-8.2-3.466A19.3,19.3,0,0,0,233,25.942a13.762,13.762,0,0,0-9.493,3.525,13.964,13.964,0,0,0-4.195,6.942,18.9,18.9,0,0,0-.5,2.6Z" transform="translate(-0.001)" fill="#fff" stroke="#fff" stroke-linecap="round" stroke-width="0.945" fill-rule="evenodd"/>
    </g>
    <g id="arrow" transform="translate(2564.74 320.426) rotate(180)">
      <line id="Line_1" data-name="Line 1" x2="80" transform="translate(1038.145 129.145) rotate(45)" fill="none" stroke="#fff" stroke-linecap="square" stroke-width="15"/>
      <line id="Line_3" data-name="Line 3" x2="80" transform="translate(1094.855 128.145) rotate(135)" fill="none" stroke="#fff" stroke-linecap="square" stroke-width="15"/>
    </g>
  </g>
</svg>
