<svg xmlns="http://www.w3.org/2000/svg" width="99.783" height="796.147" viewBox="0 0 99.783 796.147">
  <g id="why_eke" transform="translate(0.51 795.675) rotate(-90)">
    <path id="_0" data-name="0" d="M64.5,31.7l-7.4-1.4V26.4H75.4v3.9L70,31.6,55.4,74.5H51.7L38.7,39,25.5,74.5H21.8L5.7,31.3,0,30.3V26.4H22.8v3.9L15,31.5,25.3,62.2,36.5,31.5l-7.4-1.2V26.4H51.2v3.9l-7.4,1.3L55.2,62.1Z" fill="none" stroke="#343434" stroke-linecap="round" stroke-width="0.945" fill-rule="evenodd"/>
    <path id="_1" data-name="1" d="M102.6,73.9H79.4V70.3l7.5-1.4q.1-3.8.15-8.25.034-3.059.045-5.575,0-1.087.005-2.175V9L78.9,8V4.5L94.2,0l1.4.8L95.2,15V34.3a30.39,30.39,0,0,1,8.6-6.65,20.884,20.884,0,0,1,9.7-2.55q6.5,0,9.65,4.35,2.837,3.918,3.119,12.259.031.945.031,1.891v9.3q0,1.583.01,3.166.009,1.619.027,3.416.006.609.013,1.218.05,4.4.15,8.2l7,1.4v3.6H110.3V70.3l7.3-1.3q.1-3.8.15-8.25.021-1.846.034-3.693.016-2.244.016-4.157V44.4q0-6.9-1.9-9.5a5.921,5.921,0,0,0-3.032-2.137A10.493,10.493,0,0,0,109.6,32.3a16.72,16.72,0,0,0-7,1.5,20.262,20.262,0,0,0-2.757,1.544A34.669,34.669,0,0,0,95.5,38.8V52.9q0,2.269.024,5.081.011,1.335.026,2.669.05,4.45.15,8.25l6.9,1.4Z" fill="none" stroke="#343434" stroke-linecap="round" stroke-width="0.945" fill-rule="evenodd"/>
    <path id="_2" data-name="2" d="M176.9,31.2,168.2,30V26.4h19.5V30l-5.4,1.1L166.2,73.6q-5,13.3-9.65,19.25a18.523,18.523,0,0,1-3.218,3.264A12.176,12.176,0,0,1,145.7,98.8a12.468,12.468,0,0,1-3.538-.484,10.5,10.5,0,0,1-2.912-1.366,7.223,7.223,0,0,1-1.509-1.327A5.155,5.155,0,0,1,136.5,92.2a4.874,4.874,0,0,1,2.45-3.3,8.5,8.5,0,0,1,4.25-1.1,8.157,8.157,0,0,1,3.7.85,9.378,9.378,0,0,1,1.3.8,15.28,15.28,0,0,1,1.31,1.077q.562.516,1.087,1.07l.5.5a24.153,24.153,0,0,0,5.4-6.55,47.315,47.315,0,0,0,3.6-7.85l.4-1.2L142.4,30.8l-5.5-.8V26.4h24v3.7l-8.8,1,12.5,34.1Z" fill="none" stroke="#343434" stroke-linecap="round" stroke-width="0.945" fill-rule="evenodd"/>
    <path id="_4" data-name="4" d="M256.4,49.9H224.5a31.707,31.707,0,0,0,.535,5.32,20.34,20.34,0,0,0,1.715,5.229A14.773,14.773,0,0,0,240.7,68.7a15.133,15.133,0,0,0,8-1.95A24.511,24.511,0,0,0,253.4,63q.622-.632,1.2-1.3l2.4,1.9a22.444,22.444,0,0,1-7.6,8.45,20.674,20.674,0,0,1-11.6,3.15,25.268,25.268,0,0,1-7.28-1,19.72,19.72,0,0,1-8.92-5.551q-6.1-6.55-6.1-18.05a31.736,31.736,0,0,1,.692-6.779A24.338,24.338,0,0,1,218.65,37.2a24.009,24.009,0,0,1,5.869-7.114A22.9,22.9,0,0,1,227.05,28.3a21.591,21.591,0,0,1,11.45-3.2,20.27,20.27,0,0,1,6.109.9,18.182,18.182,0,0,1,3.291,1.4,17.462,17.462,0,0,1,8.721,11.917,24.462,24.462,0,0,1,.479,4.817q0,.083,0,.166,0,.917-.063,1.833-.047.661-.137,1.317-.07.514-.164,1.024A13.5,13.5,0,0,1,256.4,49.9Zm-31.7-4.2h18.2q3.6,0,4.75-1.5a5.508,5.508,0,0,0,1.059-2.518A7.411,7.411,0,0,0,248.8,40.5a10.315,10.315,0,0,0-1.45-5.35,11.344,11.344,0,0,0-3.9-3.95,10.263,10.263,0,0,0-4.927-1.485q-.311-.015-.623-.015a11.472,11.472,0,0,0-5.65,1.6,11.64,11.64,0,0,0-2.953,2.4,16.317,16.317,0,0,0-1.834,2.509l-.113.19a20.438,20.438,0,0,0-2.31,6.828q-.213,1.23-.34,2.472Z" fill="none" stroke="#343434" stroke-linecap="round" stroke-width="0.945" fill-rule="evenodd"/>
    <path id="_5" data-name="5" d="M289.3,73.9H264.5V70.3l8-1.4q.1-4,.15-8.05t.05-7.95V9l-8.2-1V4.5L280.1,0l1.4.8L281.1,15V49.9l17.1-17.8-7.4-1.8V26.4h23.3v3.9l-9.4,1.4L293.7,43l16.4,26.1,6.6,1.2v3.6H303.1L287.7,49.1l-6.6,6.8q0,3.2.05,6.5t.15,6.5l8,1.4Z" fill="none" stroke="#343434" stroke-linecap="round" stroke-width="0.945" fill-rule="evenodd"/>
    <path id="_6" data-name="6" d="M362.1,49.9H330.2a31.705,31.705,0,0,0,.535,5.32,20.339,20.339,0,0,0,1.715,5.229A14.773,14.773,0,0,0,346.4,68.7a15.133,15.133,0,0,0,8-1.95A24.51,24.51,0,0,0,359.1,63q.622-.632,1.2-1.3l2.4,1.9a22.444,22.444,0,0,1-7.6,8.45,20.674,20.674,0,0,1-11.6,3.15,25.268,25.268,0,0,1-7.28-1,19.72,19.72,0,0,1-8.92-5.551q-6.1-6.55-6.1-18.05a31.737,31.737,0,0,1,.692-6.779A24.336,24.336,0,0,1,324.35,37.2a24.01,24.01,0,0,1,5.869-7.114A22.9,22.9,0,0,1,332.75,28.3a21.591,21.591,0,0,1,11.45-3.2,20.27,20.27,0,0,1,6.109.9,18.181,18.181,0,0,1,3.291,1.4,17.462,17.462,0,0,1,8.721,11.917,24.46,24.46,0,0,1,.479,4.817q0,.083,0,.166,0,.917-.063,1.833-.047.661-.137,1.317-.07.514-.164,1.024A13.5,13.5,0,0,1,362.1,49.9Zm-31.7-4.2h18.2q3.6,0,4.75-1.5a5.508,5.508,0,0,0,1.059-2.518A7.409,7.409,0,0,0,354.5,40.5a10.315,10.315,0,0,0-1.45-5.35,11.344,11.344,0,0,0-3.9-3.95,10.263,10.263,0,0,0-4.927-1.485q-.311-.015-.623-.015a11.472,11.472,0,0,0-5.65,1.6A11.64,11.64,0,0,0,335,33.7a16.316,16.316,0,0,0-1.834,2.509l-.113.19a20.438,20.438,0,0,0-2.31,6.828q-.213,1.23-.34,2.472Z" fill="#ffcf76" stroke="#ffcf76" stroke-linecap="round" stroke-width="0.945" fill-rule="evenodd"/>
    <path id="_7" data-name="7" d="M422.8,73.9l-15.5,1-.7-6.9a21.119,21.119,0,0,1-3.5,3.625A18.161,18.161,0,0,1,400.65,73.3a14.224,14.224,0,0,1-4.446,1.585,19.656,19.656,0,0,1-3.6.315,20.284,20.284,0,0,1-6.141-.9,17.6,17.6,0,0,1-4.559-2.2,19.852,19.852,0,0,1-6.213-6.815q-.507-.9-.937-1.835A30.487,30.487,0,0,1,372.2,50.6,30.067,30.067,0,0,1,375,37.2a23.858,23.858,0,0,1,3.783-5.621A20.746,20.746,0,0,1,382.6,28.3a19.2,19.2,0,0,1,10.9-3.2,16.892,16.892,0,0,1,6.75,1.4,13.72,13.72,0,0,1,2.915,1.741,20.2,20.2,0,0,1,2.371,2.162q.55.582,1.064,1.2V9l-8.5-1V4.5L413.7,0l1.4.8L414.7,15V69.1l8.1,1.2ZM406.3,63.7V36q-1-.883-2.057-1.689A18.347,18.347,0,0,0,400.2,31.9a13.758,13.758,0,0,0-5.2-1.1,12.314,12.314,0,0,0-6.85,2.05,14.059,14.059,0,0,0-5.05,6.4,24.809,24.809,0,0,0-1.806,8.243q-.1,1.451-.094,2.907,0,9.8,3.95,14.45a13.226,13.226,0,0,0,4.308,3.414A12.757,12.757,0,0,0,395.1,69.5a13.754,13.754,0,0,0,3.2-.359,11.186,11.186,0,0,0,2.646-.991,14.528,14.528,0,0,0,2.072-1.354,22.609,22.609,0,0,0,2-1.761Q405.682,64.386,406.3,63.7Z" fill="#ffcf76" stroke="#ffcf76" stroke-linecap="round" stroke-width="0.945" fill-rule="evenodd"/>
    <path id="_8" data-name="8" d="M433.7,57.2l.3-24.9-7.1-1.5V27.2l14.7-1.4,1,1-.5,14V56.3q0,6.5,2,9.15a6.448,6.448,0,0,0,4.016,2.463,9.973,9.973,0,0,0,1.984.187q7,0,14-6.5l.3-29.4-7.1-1.4V27.2l14.5-1.4,1,1-.3,14V68.9l6.8,1.4v3.6l-13.9.8-1-8.9a26.545,26.545,0,0,1-8.231,6.989q-.159.082-.319.161a21.807,21.807,0,0,1-5.564,1.907,18.989,18.989,0,0,1-3.586.343,14.767,14.767,0,0,1-4.209-.57,10.967,10.967,0,0,1-7.328-6.84A29.4,29.4,0,0,1,433.7,57.2Z" fill="#ffcf76" stroke="#ffcf76" stroke-linecap="round" stroke-width="0.945" fill-rule="evenodd"/>
    <path id="_9" data-name="9" d="M517.6,37.1l-1.8-6.6a12.613,12.613,0,0,0-2.029-.546q-.359-.064-.721-.1a23.986,23.986,0,0,0-2.65-.15,13,13,0,0,0-9.752,4.106q-.415.432-.8.894a16.085,16.085,0,0,0-2.837,5.255,25.247,25.247,0,0,0-1.1,5.2A37.656,37.656,0,0,0,495.7,49.3a31.592,31.592,0,0,0,.439,5.445,20.357,20.357,0,0,0,1.694,5.413A15.188,15.188,0,0,0,500.2,63.7a14.652,14.652,0,0,0,10.635,4.98q.432.02.865.02a16.319,16.319,0,0,0,7.9-1.95,15.571,15.571,0,0,0,5.607-5.194q.15-.226.293-.456l2.5,1.3a21.048,21.048,0,0,1-2.514,5.137A16.938,16.938,0,0,1,521.2,71.9a17.635,17.635,0,0,1-6.523,2.776,25.2,25.2,0,0,1-5.277.524,25.556,25.556,0,0,1-7.338-1A19.635,19.635,0,0,1,493,68.5a22.484,22.484,0,0,1-5.132-9.8,34.179,34.179,0,0,1-.968-8.4,26.738,26.738,0,0,1,3.25-13.55,23.557,23.557,0,0,1,5.22-6.335A21.818,21.818,0,0,1,498.7,28.1a22.581,22.581,0,0,1,11.3-3,20.827,20.827,0,0,1,5.982.84,18.889,18.889,0,0,1,2.318.86,18.067,18.067,0,0,1,4.7,3.009,16.531,16.531,0,0,1,1.6,1.641,13.455,13.455,0,0,1,3.1,6.65,4.2,4.2,0,0,1-4.6,3.8,7.354,7.354,0,0,1-1.439-.132,4.16,4.16,0,0,1-2.311-1.218,6.928,6.928,0,0,1-1.318-2.1A9.088,9.088,0,0,1,517.6,37.1Z" fill="#ffcf76" stroke="#ffcf76" stroke-linecap="round" stroke-width="0.945" fill-rule="evenodd"/>
    <path id="_10" data-name="10" d="M563.9,44.3V41.8q0-7.3-2.2-9.7a6.553,6.553,0,0,0-2.542-1.672A13.1,13.1,0,0,0,554.5,29.7q-1.1,0-2.45.1a17.613,17.613,0,0,0-2.95.5l-1.9,6.5a10.392,10.392,0,0,1-.788,1.986A4.764,4.764,0,0,1,542,41.6q-3.6,0-4.482-3.012A6.8,6.8,0,0,1,537.3,37.5a14.511,14.511,0,0,1,6.306-8.825q.171-.114.344-.225a20.806,20.806,0,0,1,7.258-2.836A29,29,0,0,1,556.8,25.1a25.1,25.1,0,0,1,4.329.348,13.018,13.018,0,0,1,7.371,3.6,11.278,11.278,0,0,1,2.313,3.737A26.817,26.817,0,0,1,572.3,42.5V63.8a9.457,9.457,0,0,0,.666,3.991,3.471,3.471,0,0,0,.334.559,3.094,3.094,0,0,0,2.6,1.35,4.691,4.691,0,0,0,1.026-.107A3.456,3.456,0,0,0,578.1,69.1a6.859,6.859,0,0,0,1.033-.853,8.9,8.9,0,0,0,.667-.747l2,2.2a12.6,12.6,0,0,1-2.828,3.312,7.677,7.677,0,0,1-1.122.738,9.91,9.91,0,0,1-4.75,1.15,10.161,10.161,0,0,1-2.92-.4,8.177,8.177,0,0,1-3.08-1.7,9.251,9.251,0,0,1-3-5.6q-1.319,1.291-2.7,2.514a38.626,38.626,0,0,1-4.5,3.486,12.314,12.314,0,0,1-4.567,1.753,16.7,16.7,0,0,1-2.933.247,16.038,16.038,0,0,1-5.186-.812,14.021,14.021,0,0,1-4.264-2.338,10.138,10.138,0,0,1-3.6-5.938A15.78,15.78,0,0,1,536,62.7a11.188,11.188,0,0,1,1.35-5.4,12.245,12.245,0,0,1,3.091-3.533q.9-.729,1.859-1.367a47.186,47.186,0,0,1,9.7-4.581l.6-.219q1.977-.687,4.47-1.449l.83-.251Q560.9,45,563.9,44.3Zm0,19V48q-2.6.7-5.1,1.55T554.7,51a23.031,23.031,0,0,0-6.4,3.5,9.215,9.215,0,0,0-2.75,3.5,10.572,10.572,0,0,0-.467,1.55,7.85,7.85,0,0,0-.183,1.65,10.935,10.935,0,0,0,.182,2.068,6.721,6.721,0,0,0,.729,2.056A5,5,0,0,0,547.2,66.9a8.534,8.534,0,0,0,3.587,1.517,11.7,11.7,0,0,0,2.113.183,10.1,10.1,0,0,0,2.51-.306q.171-.044.34-.094a9.178,9.178,0,0,0,.993-.364A18.34,18.34,0,0,0,559,66.65q1.813-1.1,4.628-3.151l.272-.2Z" fill="#ffcf76" stroke="#ffcf76" stroke-linecap="round" stroke-width="0.945" fill-rule="evenodd"/>
    <path id="_11" data-name="11" d="M591.6,55.3V31.7h-8.3V27.3l8.9-1.1,2.6-13.4h6l-.6,13.6h13.5v5.3H600.1v31a15.282,15.282,0,0,0,.119,1.975,6.956,6.956,0,0,0,1.248,3.412q.065.083.133.163a4.916,4.916,0,0,0,3.578,1.737q.211.013.422.013a7.809,7.809,0,0,0,3.25-.7q.7-.319,1.37-.7.706-.4,1.471-.9.307-.2.609-.407l2.4,2.6a13.316,13.316,0,0,1-9.039,5.114,19.708,19.708,0,0,1-2.761.186,15.691,15.691,0,0,1-3.466-.362,10.617,10.617,0,0,1-4.518-2.165q-.161-.133-.316-.273a8.723,8.723,0,0,1-2.419-3.822,13.677,13.677,0,0,1-.614-3.143q-.068-.816-.067-1.635,0-1.9.05-3.75T591.6,55.3Z" fill="#ffcf76" stroke="#ffcf76" stroke-linecap="round" stroke-width="0.945" fill-rule="evenodd"/>
    <path id="_12" data-name="12" d="M641.6,73.9H618.4V70.3l7.5-1.4q.1-3.8.15-8.25.034-3.059.045-5.575,0-1.087.005-2.175V48.2q0-4.1-.05-6.85t-.25-5.75l-8-.9V31.2l15.4-6.1,1.5,1-.3,13.6V52.9q0,2.269.024,5.081.011,1.335.026,2.669.05,4.45.15,8.25l7,1.4ZM627.538,13.621a7.215,7.215,0,0,0,2.662.479,6.748,6.748,0,0,0,4.75-1.8,5.881,5.881,0,0,0,1.55-2.268,6.569,6.569,0,0,0,.4-2.332q0-.354-.03-.707a5.78,5.78,0,0,0-1.92-3.943A6.858,6.858,0,0,0,630.2,1.3q-.152,0-.3.005A6.8,6.8,0,0,0,625.45,3.05a5.631,5.631,0,0,0-1.634,2.5A6.978,6.978,0,0,0,623.5,7.7q0,.131,0,.262A5.936,5.936,0,0,0,625.45,12.3a6.646,6.646,0,0,0,2.088,1.321Z" fill="#ffcf76" stroke="#ffcf76" stroke-linecap="round" stroke-width="0.945" fill-rule="evenodd"/>
    <path id="_13" data-name="13" d="M672.1,75.2a23.492,23.492,0,0,1-11.05-2.75,21.056,21.056,0,0,1-7.639-6.875q-.479-.7-.911-1.425a22.426,22.426,0,0,1-2.575-6.645,31.936,31.936,0,0,1-.714-6.153q-.011-.476-.011-.952a34.6,34.6,0,0,1,.539-6.278,24.127,24.127,0,0,1,2.231-6.707q.252-.489.53-.965a23.581,23.581,0,0,1,4.467-5.6,20.741,20.741,0,0,1,4.083-2.9,22.847,22.847,0,0,1,22.1,0,21.779,21.779,0,0,1,7.45,6.721q.61.866,1.15,1.779,3.35,5.65,3.35,13.95a33.232,33.232,0,0,1-.542,6.169,23.2,23.2,0,0,1-2.3,6.683q-.244.456-.511.9a21.828,21.828,0,0,1-8.6,8.3A23.492,23.492,0,0,1,672.1,75.2Zm0-4.5a13.039,13.039,0,0,0,4.537-.755A11.219,11.219,0,0,0,682.1,65.55,17.2,17.2,0,0,0,684.233,61,35.681,35.681,0,0,0,685.6,50.447V50.4a36.69,36.69,0,0,0-1.392-10.83A17.952,17.952,0,0,0,682.1,35a11.161,11.161,0,0,0-9.059-5.271q-.47-.029-.941-.029a11.13,11.13,0,0,0-9.681,4.9q-.138.2-.269.4a18.142,18.142,0,0,0-2.1,4.65,29.788,29.788,0,0,0-1.032,5.075A47.461,47.461,0,0,0,658.7,50.4q0,9.88,3.368,15.026l.082.124a10.989,10.989,0,0,0,7.9,5.011A14.7,14.7,0,0,0,672.1,70.7Z" fill="#ffcf76" stroke="#ffcf76" stroke-linecap="round" stroke-width="0.945" fill-rule="evenodd"/>
    <path id="_14" data-name="14" d="M726.8,73.9H703.6V70.3l7.4-1.4q.1-3.8.15-8.2.021-1.829.034-3.659.016-2.228.016-4.141V48.1q0-4.1-.05-6.8-.037-1.928-.14-3.854-.049-.923-.11-1.846l-7.9-.9V31.2l14-6.1,1.5,1,.8,8a31.016,31.016,0,0,1,8.5-6.5,23.327,23.327,0,0,1,4.6-1.835,18.088,18.088,0,0,1,4.8-.665q6.5,0,9.65,4.35,2.837,3.918,3.119,12.259.031.945.031,1.891v9.3q0,1.583.01,3.166.009,1.619.027,3.416.006.609.013,1.218.05,4.4.15,8.2l7,1.4v3.6H734V70.3l7.4-1.4q.1-3.7.15-8.15.021-1.846.034-3.693.016-2.244.016-4.157V44.4q.005-1.587-.121-3.17a16.411,16.411,0,0,0-1.051-4.945,6.579,6.579,0,0,0-.778-1.385,6.094,6.094,0,0,0-3.126-2.154,9.774,9.774,0,0,0-2.339-.418q-.442-.028-.885-.028a16.306,16.306,0,0,0-6.6,1.4,21.6,21.6,0,0,0-2.672,1.418q-1.286.793-2.655,1.838-.853.652-1.673,1.344V52.9q0,2.269.024,5.081.011,1.335.026,2.669.05,4.45.15,8.25l6.9,1.4Z" fill="#ffcf76" stroke="#ffcf76" stroke-linecap="round" stroke-width="0.945" fill-rule="evenodd"/>
    <path id="_15" data-name="15" d="M785.2,40.4l-3.4,1.2q-.629.2-1.246.438a7.062,7.062,0,0,0-2.563,1.456q-.047.051-.091.106a4.912,4.912,0,0,0-.782,2.778q-.019.361-.018.722v5.5h-3.9L772,48.4q-.742-2.39-1.11-3.9-.074-.3-.14-.6-.1-.442-.177-.888a10.544,10.544,0,0,1-.169-1.421q0-.1,0-.191a4.69,4.69,0,0,1,1.478-3.512q.156-.15.322-.288a15.373,15.373,0,0,1,4.82-2.366q.686-.23,1.38-.434l5.7-1.8a11.226,11.226,0,0,0,2.515-1.186A6.42,6.42,0,0,0,789.7,26.1a10.521,10.521,0,0,0-.7-3.75,17.657,17.657,0,0,0-1.4-2.86q-.241-.4-.5-.79L774,16.4q-.984-.176-1.955-.42a8.8,8.8,0,0,1-3.845-1.73,4.547,4.547,0,0,1-1.092-1.59A4.432,4.432,0,0,1,766.8,11a6.046,6.046,0,0,1,.165-1.457A4.034,4.034,0,0,1,768.2,7.45a6.831,6.831,0,0,1,1.322-.909,10.541,10.541,0,0,1,1.447-.634q.656-.233,1.331-.407a18.665,18.665,0,0,1,3.044.559,27.188,27.188,0,0,1,3,1q.53.211,1.053.439a32.941,32.941,0,0,1,7.5,4.6,25.137,25.137,0,0,1,5.95,6.9,17.055,17.055,0,0,1,2.35,8.8,13.321,13.321,0,0,1-1.129,5.616,11.793,11.793,0,0,1-4.978,5.289,19.536,19.536,0,0,1-3.893,1.7ZM770.681,73.385A6.011,6.011,0,0,0,775.1,75.2a6.514,6.514,0,0,0,1.95-.286,6.285,6.285,0,0,0,2.65-1.664l.015-.015a6.429,6.429,0,0,0,1.432-6.919A6.734,6.734,0,0,0,779.7,64.15l-.09-.09a6.172,6.172,0,0,0-4.51-1.86l-.189,0a6.008,6.008,0,0,0-4.361,1.948,6.52,6.52,0,0,0,0,9.1q.065.068.131.135Z" fill="#ffcf76" stroke="#ffcf76" stroke-linecap="round" stroke-width="0.945" fill-rule="evenodd"/>
  </g>
</svg>
