<svg width="794.1" height="98.8" viewBox="0 0 794.1 98.8" xmlns="http://www.w3.org/2000/svg"><g id="svgGroup" stroke-linecap="round" fill-rule="evenodd" font-size="9pt" stroke="#000" stroke-width="0.25mm" fill="none" style="stroke:#000;stroke-width:0.25mm;fill:none"><path d="M 80.2 12.4 L 71.1 11.1 L 71.1 7 L 93.8 7 L 93.8 11.1 L 85.4 12.3 L 68.5 74.6 L 64.2 74.6 L 46.9 22.8 L 30.6 74.6 L 26.3 74.6 L 8.3 12.1 L 0 11.1 L 0 7 L 27.2 7 L 27.2 11.1 L 18 12.2 L 30.3 58.1 L 45.5 12.3 L 35.5 11.1 L 35.5 7 L 62.7 7 L 62.7 11.1 L 52.6 12.3 L 67.5 58.6 L 80.2 12.4 Z M 242.9 12.2 L 233.7 11.1 L 233.7 7 L 283.5 7 L 284.2 24.7 L 278.5 24.7 L 276.3 12 L 252.8 12 Q 252.7 18.4 252.65 24.8 Q 252.6 31.2 252.6 37.4 L 267.3 37.4 L 268.7 27.9 L 273.3 27.9 L 273.3 51.5 L 268.7 51.5 L 267.4 42.1 L 252.6 42.1 Q 252.6 49.6 252.65 56.15 A 1503.915 1503.915 0 0 0 252.797 68.706 A 1405.823 1405.823 0 0 0 252.8 68.9 L 278.3 68.9 L 280.5 56.1 L 286.2 56.1 L 285.5 73.9 L 233.7 73.9 L 233.7 69.8 L 242.9 68.7 Q 243.1 62.4 243.1 55.9 L 243.1 42.9 L 243.1 38 L 243.1 25.05 Q 243.1 18.6 242.9 12.2 Z M 357.9 12.2 L 348.7 11.1 L 348.7 7 L 398.5 7 L 399.2 24.7 L 393.5 24.7 L 391.3 12 L 367.8 12 Q 367.7 18.4 367.65 24.8 Q 367.6 31.2 367.6 37.4 L 382.3 37.4 L 383.7 27.9 L 388.3 27.9 L 388.3 51.5 L 383.7 51.5 L 382.4 42.1 L 367.6 42.1 Q 367.6 49.6 367.65 56.15 A 1503.915 1503.915 0 0 0 367.797 68.706 A 1405.823 1405.823 0 0 0 367.8 68.9 L 393.3 68.9 L 395.5 56.1 L 401.2 56.1 L 400.5 73.9 L 348.7 73.9 L 348.7 69.8 L 357.9 68.7 Q 358.1 62.4 358.1 55.9 L 358.1 42.9 L 358.1 38 L 358.1 25.05 Q 358.1 18.6 357.9 12.2 Z M 316.9 73.9 L 292.1 73.9 L 292.1 70.3 L 300.1 68.9 Q 300.2 64.9 300.25 60.85 Q 300.3 56.8 300.3 52.9 L 300.3 9 L 292.1 8 L 292.1 4.5 L 307.7 0 L 309.1 0.8 L 308.7 15 L 308.7 49.9 L 325.8 32.1 L 318.4 30.3 L 318.4 26.4 L 341.7 26.4 L 341.7 30.3 L 332.3 31.7 L 321.3 43 L 337.7 69.1 L 344.3 70.3 L 344.3 73.9 L 330.7 73.9 L 315.3 49.1 L 308.7 55.9 Q 308.7 59.1 308.75 62.4 Q 308.8 65.7 308.9 68.9 L 316.9 70.3 L 316.9 73.9 Z M 120.9 73.9 L 97.7 73.9 L 97.7 70.3 L 105.2 68.9 Q 105.3 65.1 105.35 60.65 Q 105.384 57.591 105.395 55.075 A 510.368 510.368 0 0 0 105.4 52.9 L 105.4 9 L 97.2 8 L 97.2 4.5 L 112.5 0 L 113.9 0.8 L 113.5 15 L 113.5 34.3 Q 117.2 30.2 122.1 27.65 Q 127 25.1 131.8 25.1 Q 138.3 25.1 141.45 29.45 Q 144.287 33.368 144.569 41.709 A 56.084 56.084 0 0 1 144.6 43.6 L 144.6 52.9 A 557.01 557.01 0 0 0 144.61 56.066 Q 144.619 57.685 144.637 59.482 A 954.949 954.949 0 0 0 144.65 60.7 Q 144.7 65.1 144.8 68.9 L 151.8 70.3 L 151.8 73.9 L 128.6 73.9 L 128.6 70.3 L 135.9 69 Q 136 65.2 136.05 60.75 A 883.78 883.78 0 0 0 136.084 57.057 Q 136.1 54.813 136.1 52.9 L 136.1 44.4 Q 136.1 37.5 134.2 34.9 A 5.921 5.921 0 0 0 131.168 32.763 Q 129.756 32.3 127.9 32.3 Q 124.2 32.3 120.9 33.8 A 20.262 20.262 0 0 0 118.143 35.344 Q 116.06 36.718 113.8 38.8 L 113.8 52.9 Q 113.8 55.169 113.824 57.981 A 943.62 943.62 0 0 0 113.85 60.65 Q 113.9 65.1 114 68.9 L 120.9 70.3 L 120.9 73.9 Z M 195.2 31.2 L 186.5 30 L 186.5 26.4 L 206 26.4 L 206 30 L 200.6 31.1 L 184.5 73.6 Q 179.5 86.9 174.85 92.85 A 18.523 18.523 0 0 1 171.632 96.114 A 12.176 12.176 0 0 1 164 98.8 A 12.468 12.468 0 0 1 160.462 98.316 A 10.5 10.5 0 0 1 157.55 96.95 A 7.223 7.223 0 0 1 156.041 95.623 A 5.155 5.155 0 0 1 154.8 92.2 A 5.017 5.017 0 0 1 155.781 90.123 A 5.062 5.062 0 0 1 157.25 88.9 Q 159.2 87.8 161.5 87.8 Q 163.5 87.8 165.2 88.65 A 9.38 9.38 0 0 1 166.503 89.453 Q 167.139 89.915 167.813 90.53 A 22.162 22.162 0 0 1 168.9 91.6 L 169.4 92.1 Q 172.6 89.4 174.8 85.55 Q 177 81.7 178.4 77.7 L 178.8 76.5 L 160.7 30.8 L 155.2 30 L 155.2 26.4 L 179.2 26.4 L 179.2 30.1 L 170.4 31.1 L 182.9 65.2 L 195.2 31.2 Z M 763.7 73.9 L 740.5 73.9 L 740.5 70.3 L 747.9 68.9 Q 748 65.1 748.05 60.7 A 859.516 859.516 0 0 0 748.084 57.041 Q 748.1 54.813 748.1 52.9 L 748.1 48.1 Q 748.1 44 748.05 41.3 A 113.143 113.143 0 0 0 747.91 37.446 A 132.774 132.774 0 0 0 747.8 35.6 L 739.9 34.7 L 739.9 31.2 L 753.9 25.1 L 755.4 26.1 L 756.2 34.1 Q 759.9 30.1 764.7 27.6 A 23.328 23.328 0 0 1 769.303 25.765 A 18.088 18.088 0 0 1 774.1 25.1 Q 780.6 25.1 783.75 29.45 Q 786.587 33.368 786.869 41.709 A 56.084 56.084 0 0 1 786.9 43.6 L 786.9 52.9 A 557.01 557.01 0 0 0 786.91 56.066 Q 786.919 57.685 786.937 59.482 A 954.949 954.949 0 0 0 786.95 60.7 Q 787 65.1 787.1 68.9 L 794.1 70.3 L 794.1 73.9 L 770.9 73.9 L 770.9 70.3 L 778.3 68.9 Q 778.4 65.2 778.45 60.75 A 883.78 883.78 0 0 0 778.484 57.057 Q 778.5 54.813 778.5 52.9 L 778.5 44.4 A 38.358 38.358 0 0 0 778.379 41.23 Q 778.123 38.162 777.328 36.285 A 6.581 6.581 0 0 0 776.55 34.9 A 6.093 6.093 0 0 0 773.424 32.746 Q 772.372 32.411 771.085 32.328 A 13.662 13.662 0 0 0 770.2 32.3 Q 766.8 32.3 763.6 33.7 A 21.593 21.593 0 0 0 760.928 35.118 Q 759.642 35.911 758.273 36.956 A 44.606 44.606 0 0 0 756.6 38.3 L 756.6 52.9 Q 756.6 55.169 756.624 57.981 A 943.62 943.62 0 0 0 756.65 60.65 Q 756.7 65.1 756.8 68.9 L 763.7 70.3 L 763.7 73.9 Z M 470.6 57.2 L 470.9 32.3 L 463.8 30.8 L 463.8 27.2 L 478.5 25.8 L 479.5 26.8 L 479 40.8 L 479 56.3 Q 479 62.8 481 65.45 A 6.448 6.448 0 0 0 485.016 67.913 A 9.973 9.973 0 0 0 487 68.1 Q 494 68.1 501 61.6 L 501.3 32.2 L 494.2 30.8 L 494.2 27.2 L 508.7 25.8 L 509.7 26.8 L 509.4 40.8 L 509.4 68.9 L 516.2 70.3 L 516.2 73.9 L 502.3 74.7 L 501.3 65.8 Q 497.441 70.528 493.069 72.789 A 19.817 19.817 0 0 1 492.75 72.95 A 21.807 21.807 0 0 1 487.186 74.857 A 18.989 18.989 0 0 1 483.6 75.2 A 14.767 14.767 0 0 1 479.391 74.63 A 11.185 11.185 0 0 1 474 71.15 A 11.21 11.21 0 0 1 472.063 67.79 Q 470.533 63.791 470.6 57.2 Z M 459.7 73.9 L 444.2 74.9 L 443.5 68 A 21.12 21.12 0 0 1 440.005 71.625 A 18.16 18.16 0 0 1 437.55 73.3 A 14.224 14.224 0 0 1 433.104 74.885 A 19.657 19.657 0 0 1 429.5 75.2 A 20.284 20.284 0 0 1 423.359 74.299 A 17.601 17.601 0 0 1 418.8 72.1 A 19.852 19.852 0 0 1 412.587 65.285 A 24.46 24.46 0 0 1 411.65 63.45 Q 409.1 57.9 409.1 50.6 Q 409.1 42.9 411.9 37.2 A 23.857 23.857 0 0 1 415.683 31.579 A 20.748 20.748 0 0 1 419.5 28.3 Q 424.3 25.1 430.4 25.1 Q 433.9 25.1 437.15 26.5 A 13.72 13.72 0 0 1 440.065 28.241 Q 441.261 29.159 442.436 30.403 A 26.789 26.789 0 0 1 443.5 31.6 L 443.5 9 L 435 8 L 435 4.5 L 450.6 0 L 452 0.8 L 451.6 15 L 451.6 69.1 L 459.7 70.3 L 459.7 73.9 Z M 600.8 44.3 L 600.8 41.8 Q 600.8 34.5 598.6 32.1 A 6.553 6.553 0 0 0 596.058 30.428 Q 594.154 29.7 591.4 29.7 Q 590.3 29.7 588.95 29.8 Q 587.6 29.9 586 30.3 L 584.1 36.8 A 10.394 10.394 0 0 1 583.312 38.786 Q 581.809 41.6 578.9 41.6 Q 575.3 41.6 574.418 38.588 A 6.806 6.806 0 0 1 574.2 37.5 A 14.511 14.511 0 0 1 580.506 28.675 A 18.845 18.845 0 0 1 580.85 28.45 A 20.806 20.806 0 0 1 588.108 25.614 A 29 29 0 0 1 593.7 25.1 A 25.097 25.097 0 0 1 598.029 25.448 Q 602.728 26.273 605.4 29.05 A 11.28 11.28 0 0 1 607.713 32.787 Q 609.2 36.558 609.2 42.5 L 609.2 63.8 Q 609.2 66.411 609.866 67.791 A 3.475 3.475 0 0 0 610.2 68.35 Q 611.2 69.7 612.8 69.7 A 4.691 4.691 0 0 0 613.826 69.593 A 3.456 3.456 0 0 0 615 69.1 A 6.86 6.86 0 0 0 616.033 68.247 A 8.9 8.9 0 0 0 616.7 67.5 L 618.7 69.7 Q 617.38 71.827 615.872 73.012 A 7.673 7.673 0 0 1 614.75 73.75 Q 612.6 74.9 610 74.9 A 10.161 10.161 0 0 1 607.08 74.498 A 8.177 8.177 0 0 1 604 72.8 Q 601.6 70.7 601 67.2 A 73.521 73.521 0 0 1 598.299 69.714 Q 595.834 71.888 593.8 73.2 A 12.314 12.314 0 0 1 589.233 74.953 A 16.697 16.697 0 0 1 586.3 75.2 A 16.038 16.038 0 0 1 581.114 74.388 A 14.021 14.021 0 0 1 576.85 72.05 A 10.138 10.138 0 0 1 573.248 66.112 A 15.775 15.775 0 0 1 572.9 62.7 Q 572.9 59.8 574.25 57.3 Q 575.218 55.508 577.341 53.767 A 23.467 23.467 0 0 1 579.2 52.4 Q 582.636 50.11 588.895 47.819 A 94.207 94.207 0 0 1 589.5 47.6 Q 591.477 46.913 593.97 46.151 A 177.58 177.58 0 0 1 594.8 45.9 Q 597.8 45 600.8 44.3 Z M 554.5 37.1 L 552.7 30.5 A 12.614 12.614 0 0 0 550.671 29.954 A 11.082 11.082 0 0 0 549.95 29.85 Q 548.6 29.7 547.3 29.7 A 12.998 12.998 0 0 0 537.548 33.806 A 16.305 16.305 0 0 0 536.75 34.7 A 16.085 16.085 0 0 0 533.913 39.955 Q 533.133 42.298 532.817 45.153 A 37.666 37.666 0 0 0 532.6 49.3 A 31.594 31.594 0 0 0 533.039 54.745 Q 533.568 57.763 534.733 60.158 A 15.189 15.189 0 0 0 537.1 63.7 A 14.652 14.652 0 0 0 547.735 68.68 A 18.968 18.968 0 0 0 548.6 68.7 Q 552.9 68.7 556.5 66.75 A 15.571 15.571 0 0 0 562.107 61.556 A 18.405 18.405 0 0 0 562.4 61.1 L 564.9 62.4 A 21.05 21.05 0 0 1 562.386 67.537 A 16.937 16.937 0 0 1 558.1 71.9 A 17.635 17.635 0 0 1 551.577 74.676 A 25.199 25.199 0 0 1 546.3 75.2 A 25.556 25.556 0 0 1 538.962 74.198 A 19.635 19.635 0 0 1 529.9 68.5 A 22.484 22.484 0 0 1 524.768 58.702 Q 523.8 54.882 523.8 50.3 Q 523.8 42.4 527.05 36.75 A 23.557 23.557 0 0 1 532.27 30.415 A 21.821 21.821 0 0 1 535.6 28.1 Q 540.9 25.1 546.9 25.1 A 20.827 20.827 0 0 1 552.882 25.94 A 18.891 18.891 0 0 1 555.2 26.8 A 18.068 18.068 0 0 1 559.901 29.809 A 16.538 16.538 0 0 1 561.5 31.45 Q 564 34.4 564.6 38.1 Q 563.9 41.9 560 41.9 A 7.354 7.354 0 0 1 558.561 41.768 Q 557.11 41.478 556.25 40.55 A 6.929 6.929 0 0 1 554.932 38.455 A 9.094 9.094 0 0 1 554.5 37.1 Z M 628.5 55.3 L 628.5 31.7 L 620.2 31.7 L 620.2 27.3 L 629.1 26.2 L 631.7 12.8 L 637.7 12.8 L 637.1 26.4 L 650.6 26.4 L 650.6 31.7 L 637 31.7 L 637 62.7 A 15.27 15.27 0 0 0 637.119 64.675 Q 637.403 66.846 638.367 68.087 A 4.375 4.375 0 0 0 638.5 68.25 A 4.916 4.916 0 0 0 642.078 69.987 A 6.791 6.791 0 0 0 642.5 70 Q 644.2 70 645.75 69.3 A 17.651 17.651 0 0 0 647.12 68.603 Q 647.826 68.207 648.591 67.707 A 33.31 33.31 0 0 0 649.2 67.3 L 651.6 69.9 A 13.316 13.316 0 0 1 642.561 75.014 A 19.708 19.708 0 0 1 639.8 75.2 A 15.691 15.691 0 0 1 636.334 74.838 Q 633.708 74.244 631.816 72.673 A 9.963 9.963 0 0 1 631.5 72.4 A 8.723 8.723 0 0 1 629.081 68.578 Q 628.613 67.162 628.467 65.435 A 19.379 19.379 0 0 1 628.4 63.8 Q 628.4 61.9 628.45 60.05 Q 628.5 58.2 628.5 55.3 Z M 709 75.2 Q 703.2 75.2 697.95 72.45 A 21.056 21.056 0 0 1 690.311 65.575 A 25.732 25.732 0 0 1 689.4 64.15 A 22.428 22.428 0 0 1 686.825 57.505 Q 686.191 54.651 686.111 51.352 A 39.614 39.614 0 0 1 686.1 50.4 A 34.597 34.597 0 0 1 686.639 44.122 Q 687.322 40.421 688.87 37.415 A 20.726 20.726 0 0 1 689.4 36.45 A 23.581 23.581 0 0 1 693.867 30.853 A 20.739 20.739 0 0 1 697.95 27.95 Q 703.2 25.1 709 25.1 Q 714.8 25.1 720.05 27.95 A 21.78 21.78 0 0 1 727.5 34.671 A 26.755 26.755 0 0 1 728.65 36.45 Q 732 42.1 732 50.4 A 33.234 33.234 0 0 1 731.458 56.569 Q 730.759 60.267 729.161 63.252 A 20.055 20.055 0 0 1 728.65 64.15 Q 725.3 69.7 720.05 72.45 Q 714.8 75.2 709 75.2 Z M 678.5 73.9 L 655.3 73.9 L 655.3 70.3 L 662.8 68.9 Q 662.9 65.1 662.95 60.65 Q 662.984 57.591 662.995 55.075 A 510.368 510.368 0 0 0 663 52.9 L 663 48.2 Q 663 44.1 662.95 41.35 Q 662.9 38.6 662.7 35.6 L 654.7 34.7 L 654.7 31.2 L 670.1 25.1 L 671.6 26.1 L 671.3 39.7 L 671.3 52.9 Q 671.3 55.169 671.324 57.981 A 943.62 943.62 0 0 0 671.35 60.65 Q 671.4 65.1 671.5 68.9 L 678.5 70.3 L 678.5 73.9 Z M 709 70.7 A 13.039 13.039 0 0 0 713.537 69.945 Q 716.84 68.729 719 65.55 A 17.2 17.2 0 0 0 721.133 61.005 Q 722.495 56.666 722.5 50.447 A 56.981 56.981 0 0 0 722.5 50.4 Q 722.5 44.031 721.108 39.57 A 17.953 17.953 0 0 0 719 35 Q 715.758 30.09 709.941 29.729 A 15.168 15.168 0 0 0 709 29.7 Q 702.749 29.7 699.319 34.601 A 14.322 14.322 0 0 0 699.05 35 A 18.142 18.142 0 0 0 696.948 39.65 Q 696.253 41.938 695.916 44.725 A 47.468 47.468 0 0 0 695.6 50.4 Q 695.6 60.28 698.968 65.426 A 13.895 13.895 0 0 0 699.05 65.55 A 10.989 10.989 0 0 0 706.949 70.561 A 14.699 14.699 0 0 0 709 70.7 Z M 443.2 63.7 L 443.2 36 A 35.402 35.402 0 0 0 441.143 34.311 Q 438.956 32.656 437.1 31.9 Q 434.4 30.8 431.9 30.8 Q 428.2 30.8 425.05 32.85 Q 421.9 34.9 420 39.25 Q 418.523 42.631 418.194 47.493 A 43.111 43.111 0 0 0 418.1 50.4 Q 418.1 60.2 422.05 64.85 A 13.226 13.226 0 0 0 426.358 68.264 A 12.757 12.757 0 0 0 432 69.5 A 13.754 13.754 0 0 0 435.204 69.141 A 11.186 11.186 0 0 0 437.85 68.15 A 14.528 14.528 0 0 0 439.922 66.796 Q 440.905 66.036 441.924 65.035 A 31.26 31.26 0 0 0 443.2 63.7 Z M 600.8 63.3 L 600.8 48 Q 598.2 48.7 595.7 49.55 Q 593.2 50.4 591.6 51 Q 587.3 52.7 585.2 54.5 Q 583.1 56.3 582.45 58 A 10.563 10.563 0 0 0 581.983 59.55 A 7.846 7.846 0 0 0 581.8 61.2 A 10.937 10.937 0 0 0 581.982 63.268 Q 582.207 64.435 582.711 65.324 A 5.004 5.004 0 0 0 584.1 66.9 A 8.534 8.534 0 0 0 587.687 68.417 A 11.695 11.695 0 0 0 589.8 68.6 A 10.095 10.095 0 0 0 592.31 68.294 A 9.347 9.347 0 0 0 592.65 68.2 A 9.177 9.177 0 0 0 593.643 67.836 Q 594.653 67.405 595.9 66.65 Q 597.713 65.553 600.528 63.499 A 137.118 137.118 0 0 0 600.8 63.3 Z M 664.438 13.621 A 7.215 7.215 0 0 0 667.1 14.1 Q 669.9 14.1 671.85 12.3 A 5.881 5.881 0 0 0 673.4 10.032 A 6.569 6.569 0 0 0 673.8 7.7 A 8.025 8.025 0 0 0 673.77 6.993 A 5.78 5.78 0 0 0 671.85 3.05 Q 669.9 1.3 667.1 1.3 A 8.743 8.743 0 0 0 666.796 1.305 A 6.797 6.797 0 0 0 662.35 3.05 A 5.631 5.631 0 0 0 660.716 5.553 A 6.976 6.976 0 0 0 660.4 7.7 A 7.844 7.844 0 0 0 660.404 7.962 A 5.936 5.936 0 0 0 662.35 12.3 A 6.646 6.646 0 0 0 664.438 13.621 Z" vector-effect="non-scaling-stroke"/></g></svg>