<svg width="795.202" height="98.8" viewBox="0 0 795.202 98.8" xmlns="http://www.w3.org/2000/svg"><g id="svgGroup" stroke-linecap="round" fill-rule="evenodd" font-size="9pt" stroke="#000" stroke-width="0.25mm" fill="none" style="stroke:#000;stroke-width:0.25mm;fill:none"><path d="M 64.5 31.7 L 57.1 30.3 L 57.1 26.4 L 75.4 26.4 L 75.4 30.3 L 70 31.6 L 55.4 74.5 L 51.7 74.5 L 38.7 39 L 25.5 74.5 L 21.8 74.5 L 5.7 31.3 L 0 30.3 L 0 26.4 L 22.8 26.4 L 22.8 30.3 L 15 31.5 L 25.3 62.2 L 36.5 31.5 L 29.1 30.3 L 29.1 26.4 L 51.2 26.4 L 51.2 30.3 L 43.8 31.6 L 55.2 62.1 L 64.5 31.7 Z" id="0" vector-effect="non-scaling-stroke"/><path d="M 102.6 73.9 L 79.4 73.9 L 79.4 70.3 L 86.9 68.9 Q 87 65.1 87.05 60.65 Q 87.084 57.591 87.095 55.075 A 510.368 510.368 0 0 0 87.1 52.9 L 87.1 9 L 78.9 8 L 78.9 4.5 L 94.2 0 L 95.6 0.8 L 95.2 15 L 95.2 34.3 Q 98.9 30.2 103.8 27.65 Q 108.7 25.1 113.5 25.1 Q 120 25.1 123.15 29.45 Q 125.987 33.368 126.269 41.709 A 56.084 56.084 0 0 1 126.3 43.6 L 126.3 52.9 A 557.01 557.01 0 0 0 126.31 56.066 Q 126.319 57.685 126.337 59.482 A 954.949 954.949 0 0 0 126.35 60.7 Q 126.4 65.1 126.5 68.9 L 133.5 70.3 L 133.5 73.9 L 110.3 73.9 L 110.3 70.3 L 117.6 69 Q 117.7 65.2 117.75 60.75 A 883.78 883.78 0 0 0 117.784 57.057 Q 117.8 54.813 117.8 52.9 L 117.8 44.4 Q 117.8 37.5 115.9 34.9 A 5.921 5.921 0 0 0 112.868 32.763 Q 111.456 32.3 109.6 32.3 Q 105.9 32.3 102.6 33.8 A 20.262 20.262 0 0 0 99.843 35.344 Q 97.76 36.718 95.5 38.8 L 95.5 52.9 Q 95.5 55.169 95.524 57.981 A 943.62 943.62 0 0 0 95.55 60.65 Q 95.6 65.1 95.7 68.9 L 102.6 70.3 L 102.6 73.9 Z" id="1" vector-effect="non-scaling-stroke"/><path d="M 176.9 31.2 L 168.2 30 L 168.2 26.4 L 187.7 26.4 L 187.7 30 L 182.3 31.1 L 166.2 73.6 Q 161.2 86.9 156.55 92.85 A 18.523 18.523 0 0 1 153.332 96.114 A 12.176 12.176 0 0 1 145.7 98.8 A 12.468 12.468 0 0 1 142.162 98.316 A 10.5 10.5 0 0 1 139.25 96.95 A 7.223 7.223 0 0 1 137.741 95.623 A 5.155 5.155 0 0 1 136.5 92.2 A 5.017 5.017 0 0 1 137.481 90.123 A 5.062 5.062 0 0 1 138.95 88.9 Q 140.9 87.8 143.2 87.8 Q 145.2 87.8 146.9 88.65 A 9.38 9.38 0 0 1 148.203 89.453 Q 148.839 89.915 149.513 90.53 A 22.162 22.162 0 0 1 150.6 91.6 L 151.1 92.1 Q 154.3 89.4 156.5 85.55 Q 158.7 81.7 160.1 77.7 L 160.5 76.5 L 142.4 30.8 L 136.9 30 L 136.9 26.4 L 160.9 26.4 L 160.9 30.1 L 152.1 31.1 L 164.6 65.2 L 176.9 31.2 Z" id="2" vector-effect="non-scaling-stroke"/><path d="M 256.4 49.9 L 224.5 49.9 A 31.707 31.707 0 0 0 225.035 55.22 Q 225.6 58.141 226.75 60.449 A 14.912 14.912 0 0 0 229.1 63.9 Q 233.5 68.7 240.7 68.7 Q 245.5 68.7 248.7 66.75 A 24.51 24.51 0 0 0 253.395 63.001 A 28.63 28.63 0 0 0 254.6 61.7 L 257 63.6 Q 254.2 68.9 249.4 72.05 Q 244.6 75.2 237.8 75.2 A 25.268 25.268 0 0 1 230.52 74.201 A 19.72 19.72 0 0 1 221.6 68.65 Q 215.5 62.1 215.5 50.6 A 31.737 31.737 0 0 1 216.192 43.821 A 24.337 24.337 0 0 1 218.65 37.2 A 24.01 24.01 0 0 1 224.519 30.086 A 22.898 22.898 0 0 1 227.05 28.3 Q 232.3 25.1 238.5 25.1 A 20.27 20.27 0 0 1 244.609 25.998 A 18.181 18.181 0 0 1 247.9 27.4 Q 252.1 29.7 254.6 33.95 A 17.48 17.48 0 0 1 256.621 39.317 Q 257.085 41.559 257.1 44.134 A 29.59 29.59 0 0 1 257.1 44.3 A 25.503 25.503 0 0 1 257.037 46.133 A 20.365 20.365 0 0 1 256.9 47.45 A 22.499 22.499 0 0 1 256.736 48.474 Q 256.588 49.275 256.4 49.9 Z M 224.7 45.7 L 242.9 45.7 Q 246.5 45.7 247.65 44.2 A 5.508 5.508 0 0 0 248.709 41.682 A 7.411 7.411 0 0 0 248.8 40.5 Q 248.8 37.6 247.35 35.15 Q 245.9 32.7 243.45 31.2 A 10.263 10.263 0 0 0 238.523 29.715 A 12.422 12.422 0 0 0 237.9 29.7 Q 235.1 29.7 232.25 31.3 A 11.64 11.64 0 0 0 229.297 33.701 Q 228.313 34.796 227.463 36.21 A 19.689 19.689 0 0 0 227.35 36.4 Q 225.757 39.12 225.04 43.228 A 35.789 35.789 0 0 0 224.7 45.7 Z" id="4" vector-effect="non-scaling-stroke"/><path d="M 289.3 73.9 L 264.5 73.9 L 264.5 70.3 L 272.5 68.9 Q 272.6 64.9 272.65 60.85 Q 272.7 56.8 272.7 52.9 L 272.7 9 L 264.5 8 L 264.5 4.5 L 280.1 0 L 281.5 0.8 L 281.1 15 L 281.1 49.9 L 298.2 32.1 L 290.8 30.3 L 290.8 26.4 L 314.1 26.4 L 314.1 30.3 L 304.7 31.7 L 293.7 43 L 310.1 69.1 L 316.7 70.3 L 316.7 73.9 L 303.1 73.9 L 287.7 49.1 L 281.1 55.9 Q 281.1 59.1 281.15 62.4 Q 281.2 65.7 281.3 68.9 L 289.3 70.3 L 289.3 73.9 Z" id="5" vector-effect="non-scaling-stroke"/><path d="M 362.1 49.9 L 330.2 49.9 A 31.707 31.707 0 0 0 330.735 55.22 Q 331.3 58.141 332.45 60.449 A 14.912 14.912 0 0 0 334.8 63.9 Q 339.2 68.7 346.4 68.7 Q 351.2 68.7 354.4 66.75 A 24.51 24.51 0 0 0 359.095 63.001 A 28.63 28.63 0 0 0 360.3 61.7 L 362.7 63.6 Q 359.9 68.9 355.1 72.05 Q 350.3 75.2 343.5 75.2 A 25.268 25.268 0 0 1 336.22 74.201 A 19.72 19.72 0 0 1 327.3 68.65 Q 321.2 62.1 321.2 50.6 A 31.737 31.737 0 0 1 321.892 43.821 A 24.337 24.337 0 0 1 324.35 37.2 A 24.01 24.01 0 0 1 330.219 30.086 A 22.898 22.898 0 0 1 332.75 28.3 Q 338 25.1 344.2 25.1 A 20.27 20.27 0 0 1 350.309 25.998 A 18.181 18.181 0 0 1 353.6 27.4 Q 357.8 29.7 360.3 33.95 A 17.48 17.48 0 0 1 362.321 39.317 Q 362.785 41.559 362.8 44.134 A 29.59 29.59 0 0 1 362.8 44.3 A 25.503 25.503 0 0 1 362.737 46.133 A 20.365 20.365 0 0 1 362.6 47.45 A 22.499 22.499 0 0 1 362.436 48.474 Q 362.288 49.275 362.1 49.9 Z M 330.4 45.7 L 348.6 45.7 Q 352.2 45.7 353.35 44.2 A 5.508 5.508 0 0 0 354.409 41.682 A 7.411 7.411 0 0 0 354.5 40.5 Q 354.5 37.6 353.05 35.15 Q 351.6 32.7 349.15 31.2 A 10.263 10.263 0 0 0 344.223 29.715 A 12.422 12.422 0 0 0 343.6 29.7 Q 340.8 29.7 337.95 31.3 A 11.64 11.64 0 0 0 334.997 33.701 Q 334.013 34.796 333.163 36.21 A 19.689 19.689 0 0 0 333.05 36.4 Q 331.457 39.12 330.74 43.228 A 35.789 35.789 0 0 0 330.4 45.7 Z" id="6" vector-effect="non-scaling-stroke"/><path d="M 422.8 73.9 L 407.3 74.9 L 406.6 68 A 21.12 21.12 0 0 1 403.105 71.625 A 18.16 18.16 0 0 1 400.65 73.3 A 14.224 14.224 0 0 1 396.204 74.885 A 19.657 19.657 0 0 1 392.6 75.2 A 20.284 20.284 0 0 1 386.459 74.299 A 17.601 17.601 0 0 1 381.9 72.1 A 19.852 19.852 0 0 1 375.687 65.285 A 24.46 24.46 0 0 1 374.75 63.45 Q 372.2 57.9 372.2 50.6 Q 372.2 42.9 375 37.2 A 23.857 23.857 0 0 1 378.783 31.579 A 20.748 20.748 0 0 1 382.6 28.3 Q 387.4 25.1 393.5 25.1 Q 397 25.1 400.25 26.5 A 13.72 13.72 0 0 1 403.165 28.241 Q 404.361 29.159 405.536 30.403 A 26.789 26.789 0 0 1 406.6 31.6 L 406.6 9 L 398.1 8 L 398.1 4.5 L 413.7 0 L 415.1 0.8 L 414.7 15 L 414.7 69.1 L 422.8 70.3 L 422.8 73.9 Z M 406.3 63.7 L 406.3 36 A 35.402 35.402 0 0 0 404.243 34.311 Q 402.056 32.656 400.2 31.9 Q 397.5 30.8 395 30.8 Q 391.3 30.8 388.15 32.85 Q 385 34.9 383.1 39.25 Q 381.623 42.631 381.294 47.493 A 43.111 43.111 0 0 0 381.2 50.4 Q 381.2 60.2 385.15 64.85 A 13.226 13.226 0 0 0 389.458 68.264 A 12.757 12.757 0 0 0 395.1 69.5 A 13.754 13.754 0 0 0 398.304 69.141 A 11.186 11.186 0 0 0 400.95 68.15 A 14.528 14.528 0 0 0 403.022 66.796 Q 404.005 66.036 405.024 65.035 A 31.26 31.26 0 0 0 406.3 63.7 Z" id="7" vector-effect="non-scaling-stroke"/><path d="M 433.7 57.2 L 434 32.3 L 426.9 30.8 L 426.9 27.2 L 441.6 25.8 L 442.6 26.8 L 442.1 40.8 L 442.1 56.3 Q 442.1 62.8 444.1 65.45 A 6.448 6.448 0 0 0 448.116 67.913 A 9.973 9.973 0 0 0 450.1 68.1 Q 457.1 68.1 464.1 61.6 L 464.4 32.2 L 457.3 30.8 L 457.3 27.2 L 471.8 25.8 L 472.8 26.8 L 472.5 40.8 L 472.5 68.9 L 479.3 70.3 L 479.3 73.9 L 465.4 74.7 L 464.4 65.8 Q 460.541 70.528 456.169 72.789 A 19.817 19.817 0 0 1 455.85 72.95 A 21.807 21.807 0 0 1 450.286 74.857 A 18.989 18.989 0 0 1 446.7 75.2 A 14.767 14.767 0 0 1 442.491 74.63 A 11.185 11.185 0 0 1 437.1 71.15 A 11.21 11.21 0 0 1 435.163 67.79 Q 433.633 63.791 433.7 57.2 Z" id="8" vector-effect="non-scaling-stroke"/><path d="M 517.6 37.1 L 515.8 30.5 A 12.614 12.614 0 0 0 513.771 29.954 A 11.082 11.082 0 0 0 513.05 29.85 Q 511.7 29.7 510.4 29.7 A 12.998 12.998 0 0 0 500.648 33.806 A 16.305 16.305 0 0 0 499.85 34.7 A 16.085 16.085 0 0 0 497.013 39.955 Q 496.233 42.298 495.917 45.153 A 37.666 37.666 0 0 0 495.7 49.3 A 31.594 31.594 0 0 0 496.139 54.745 Q 496.668 57.763 497.833 60.158 A 15.189 15.189 0 0 0 500.2 63.7 A 14.652 14.652 0 0 0 510.835 68.68 A 18.968 18.968 0 0 0 511.7 68.7 Q 516 68.7 519.6 66.75 A 15.571 15.571 0 0 0 525.207 61.556 A 18.405 18.405 0 0 0 525.5 61.1 L 528 62.4 A 21.05 21.05 0 0 1 525.486 67.537 A 16.937 16.937 0 0 1 521.2 71.9 A 17.635 17.635 0 0 1 514.677 74.676 A 25.199 25.199 0 0 1 509.4 75.2 A 25.556 25.556 0 0 1 502.062 74.198 A 19.635 19.635 0 0 1 493 68.5 A 22.484 22.484 0 0 1 487.868 58.702 Q 486.9 54.882 486.9 50.3 Q 486.9 42.4 490.15 36.75 A 23.557 23.557 0 0 1 495.37 30.415 A 21.821 21.821 0 0 1 498.7 28.1 Q 504 25.1 510 25.1 A 20.827 20.827 0 0 1 515.982 25.94 A 18.891 18.891 0 0 1 518.3 26.8 A 18.068 18.068 0 0 1 523.001 29.809 A 16.538 16.538 0 0 1 524.6 31.45 Q 527.1 34.4 527.7 38.1 Q 527 41.9 523.1 41.9 A 7.354 7.354 0 0 1 521.661 41.768 Q 520.21 41.478 519.35 40.55 A 6.929 6.929 0 0 1 518.032 38.455 A 9.094 9.094 0 0 1 517.6 37.1 Z" id="9" vector-effect="non-scaling-stroke"/><path d="M 563.9 44.3 L 563.9 41.8 Q 563.9 34.5 561.7 32.1 A 6.553 6.553 0 0 0 559.158 30.428 Q 557.254 29.7 554.5 29.7 Q 553.4 29.7 552.05 29.8 Q 550.7 29.9 549.1 30.3 L 547.2 36.8 A 10.394 10.394 0 0 1 546.412 38.786 Q 544.909 41.6 542 41.6 Q 538.4 41.6 537.518 38.588 A 6.806 6.806 0 0 1 537.3 37.5 A 14.511 14.511 0 0 1 543.606 28.675 A 18.845 18.845 0 0 1 543.95 28.45 A 20.806 20.806 0 0 1 551.208 25.614 A 29 29 0 0 1 556.8 25.1 A 25.097 25.097 0 0 1 561.129 25.448 Q 565.828 26.273 568.5 29.05 A 11.28 11.28 0 0 1 570.813 32.787 Q 572.3 36.558 572.3 42.5 L 572.3 63.8 Q 572.3 66.411 572.966 67.791 A 3.475 3.475 0 0 0 573.3 68.35 Q 574.3 69.7 575.9 69.7 A 4.691 4.691 0 0 0 576.926 69.593 A 3.456 3.456 0 0 0 578.1 69.1 A 6.86 6.86 0 0 0 579.133 68.247 A 8.9 8.9 0 0 0 579.8 67.5 L 581.8 69.7 Q 580.48 71.827 578.972 73.012 A 7.673 7.673 0 0 1 577.85 73.75 Q 575.7 74.9 573.1 74.9 A 10.161 10.161 0 0 1 570.18 74.498 A 8.177 8.177 0 0 1 567.1 72.8 Q 564.7 70.7 564.1 67.2 A 73.521 73.521 0 0 1 561.399 69.714 Q 558.934 71.888 556.9 73.2 A 12.314 12.314 0 0 1 552.333 74.953 A 16.697 16.697 0 0 1 549.4 75.2 A 16.038 16.038 0 0 1 544.214 74.388 A 14.021 14.021 0 0 1 539.95 72.05 A 10.138 10.138 0 0 1 536.348 66.112 A 15.775 15.775 0 0 1 536 62.7 Q 536 59.8 537.35 57.3 Q 538.318 55.508 540.441 53.767 A 23.467 23.467 0 0 1 542.3 52.4 Q 545.736 50.11 551.995 47.819 A 94.207 94.207 0 0 1 552.6 47.6 Q 554.577 46.913 557.07 46.151 A 177.58 177.58 0 0 1 557.9 45.9 Q 560.9 45 563.9 44.3 Z M 563.9 63.3 L 563.9 48 Q 561.3 48.7 558.8 49.55 Q 556.3 50.4 554.7 51 Q 550.4 52.7 548.3 54.5 Q 546.2 56.3 545.55 58 A 10.563 10.563 0 0 0 545.083 59.55 A 7.846 7.846 0 0 0 544.9 61.2 A 10.937 10.937 0 0 0 545.082 63.268 Q 545.307 64.435 545.811 65.324 A 5.004 5.004 0 0 0 547.2 66.9 A 8.534 8.534 0 0 0 550.787 68.417 A 11.695 11.695 0 0 0 552.9 68.6 A 10.095 10.095 0 0 0 555.41 68.294 A 9.347 9.347 0 0 0 555.75 68.2 A 9.177 9.177 0 0 0 556.743 67.836 Q 557.753 67.405 559 66.65 Q 560.813 65.553 563.628 63.499 A 137.118 137.118 0 0 0 563.9 63.3 Z" id="10" vector-effect="non-scaling-stroke"/><path d="M 591.6 55.3 L 591.6 31.7 L 583.3 31.7 L 583.3 27.3 L 592.2 26.2 L 594.8 12.8 L 600.8 12.8 L 600.2 26.4 L 613.7 26.4 L 613.7 31.7 L 600.1 31.7 L 600.1 62.7 A 15.27 15.27 0 0 0 600.219 64.675 Q 600.503 66.846 601.467 68.087 A 4.375 4.375 0 0 0 601.6 68.25 A 4.916 4.916 0 0 0 605.178 69.987 A 6.791 6.791 0 0 0 605.6 70 Q 607.3 70 608.85 69.3 A 17.651 17.651 0 0 0 610.22 68.603 Q 610.926 68.207 611.691 67.707 A 33.31 33.31 0 0 0 612.3 67.3 L 614.7 69.9 A 13.316 13.316 0 0 1 605.661 75.014 A 19.708 19.708 0 0 1 602.9 75.2 A 15.691 15.691 0 0 1 599.434 74.838 Q 596.808 74.244 594.916 72.673 A 9.963 9.963 0 0 1 594.6 72.4 A 8.723 8.723 0 0 1 592.181 68.578 Q 591.713 67.162 591.567 65.435 A 19.379 19.379 0 0 1 591.5 63.8 Q 591.5 61.9 591.55 60.05 Q 591.6 58.2 591.6 55.3 Z" id="11" vector-effect="non-scaling-stroke"/><path d="M 641.6 73.9 L 618.4 73.9 L 618.4 70.3 L 625.9 68.9 Q 626 65.1 626.05 60.65 Q 626.084 57.591 626.095 55.075 A 510.368 510.368 0 0 0 626.1 52.9 L 626.1 48.2 Q 626.1 44.1 626.05 41.35 Q 626 38.6 625.8 35.6 L 617.8 34.7 L 617.8 31.2 L 633.2 25.1 L 634.7 26.1 L 634.4 39.7 L 634.4 52.9 Q 634.4 55.169 634.424 57.981 A 943.62 943.62 0 0 0 634.45 60.65 Q 634.5 65.1 634.6 68.9 L 641.6 70.3 L 641.6 73.9 Z M 627.538 13.621 A 7.215 7.215 0 0 0 630.2 14.1 Q 633 14.1 634.95 12.3 A 5.881 5.881 0 0 0 636.5 10.032 A 6.569 6.569 0 0 0 636.9 7.7 A 8.025 8.025 0 0 0 636.87 6.993 A 5.78 5.78 0 0 0 634.95 3.05 Q 633 1.3 630.2 1.3 A 8.743 8.743 0 0 0 629.896 1.305 A 6.797 6.797 0 0 0 625.45 3.05 A 5.631 5.631 0 0 0 623.816 5.553 A 6.976 6.976 0 0 0 623.5 7.7 A 7.844 7.844 0 0 0 623.504 7.962 A 5.936 5.936 0 0 0 625.45 12.3 A 6.646 6.646 0 0 0 627.538 13.621 Z" id="12" vector-effect="non-scaling-stroke"/><path d="M 672.1 75.2 Q 666.3 75.2 661.05 72.45 A 21.056 21.056 0 0 1 653.411 65.575 A 25.732 25.732 0 0 1 652.5 64.15 A 22.428 22.428 0 0 1 649.925 57.505 Q 649.291 54.651 649.211 51.352 A 39.614 39.614 0 0 1 649.2 50.4 A 34.597 34.597 0 0 1 649.739 44.122 Q 650.422 40.421 651.97 37.415 A 20.726 20.726 0 0 1 652.5 36.45 A 23.581 23.581 0 0 1 656.967 30.853 A 20.739 20.739 0 0 1 661.05 27.95 Q 666.3 25.1 672.1 25.1 Q 677.9 25.1 683.15 27.95 A 21.78 21.78 0 0 1 690.6 34.671 A 26.755 26.755 0 0 1 691.75 36.45 Q 695.1 42.1 695.1 50.4 A 33.234 33.234 0 0 1 694.558 56.569 Q 693.859 60.267 692.261 63.252 A 20.055 20.055 0 0 1 691.75 64.15 Q 688.4 69.7 683.15 72.45 Q 677.9 75.2 672.1 75.2 Z M 672.1 70.7 A 13.039 13.039 0 0 0 676.637 69.945 Q 679.94 68.729 682.1 65.55 A 17.2 17.2 0 0 0 684.233 61.005 Q 685.595 56.666 685.6 50.447 A 56.981 56.981 0 0 0 685.6 50.4 Q 685.6 44.031 684.208 39.57 A 17.953 17.953 0 0 0 682.1 35 Q 678.858 30.09 673.041 29.729 A 15.168 15.168 0 0 0 672.1 29.7 Q 665.849 29.7 662.419 34.601 A 14.322 14.322 0 0 0 662.15 35 A 18.142 18.142 0 0 0 660.048 39.65 Q 659.353 41.938 659.016 44.725 A 47.468 47.468 0 0 0 658.7 50.4 Q 658.7 60.28 662.068 65.426 A 13.895 13.895 0 0 0 662.15 65.55 A 10.989 10.989 0 0 0 670.049 70.561 A 14.699 14.699 0 0 0 672.1 70.7 Z" id="13" vector-effect="non-scaling-stroke"/><path d="M 726.8 73.9 L 703.6 73.9 L 703.6 70.3 L 711 68.9 Q 711.1 65.1 711.15 60.7 A 859.516 859.516 0 0 0 711.184 57.041 Q 711.2 54.813 711.2 52.9 L 711.2 48.1 Q 711.2 44 711.15 41.3 A 113.143 113.143 0 0 0 711.01 37.446 A 132.774 132.774 0 0 0 710.9 35.6 L 703 34.7 L 703 31.2 L 717 25.1 L 718.5 26.1 L 719.3 34.1 Q 723 30.1 727.8 27.6 A 23.328 23.328 0 0 1 732.403 25.765 A 18.088 18.088 0 0 1 737.2 25.1 Q 743.7 25.1 746.85 29.45 Q 749.687 33.368 749.969 41.709 A 56.084 56.084 0 0 1 750 43.6 L 750 52.9 A 557.01 557.01 0 0 0 750.01 56.066 Q 750.019 57.685 750.037 59.482 A 954.949 954.949 0 0 0 750.05 60.7 Q 750.1 65.1 750.2 68.9 L 757.2 70.3 L 757.2 73.9 L 734 73.9 L 734 70.3 L 741.4 68.9 Q 741.5 65.2 741.55 60.75 A 883.78 883.78 0 0 0 741.584 57.057 Q 741.6 54.813 741.6 52.9 L 741.6 44.4 A 38.358 38.358 0 0 0 741.479 41.23 Q 741.223 38.162 740.428 36.285 A 6.581 6.581 0 0 0 739.65 34.9 A 6.093 6.093 0 0 0 736.524 32.746 Q 735.472 32.411 734.185 32.328 A 13.662 13.662 0 0 0 733.3 32.3 Q 729.9 32.3 726.7 33.7 A 21.593 21.593 0 0 0 724.028 35.118 Q 722.742 35.911 721.373 36.956 A 44.606 44.606 0 0 0 719.7 38.3 L 719.7 52.9 Q 719.7 55.169 719.724 57.981 A 943.62 943.62 0 0 0 719.75 60.65 Q 719.8 65.1 719.9 68.9 L 726.8 70.3 L 726.8 73.9 Z" id="14" vector-effect="non-scaling-stroke"/><path d="M 785.2 40.4 L 781.8 41.6 A 23.892 23.892 0 0 0 780.554 42.038 Q 778.663 42.766 777.991 43.494 A 1.999 1.999 0 0 0 777.9 43.6 Q 777.221 44.449 777.118 46.378 A 13.6 13.6 0 0 0 777.1 47.1 L 777.1 52.6 L 773.2 52.6 L 772 48.4 Q 771.258 46.01 770.89 44.503 A 25.623 25.623 0 0 1 770.75 43.9 A 22.512 22.512 0 0 1 770.573 43.012 Q 770.425 42.175 770.404 41.591 A 5.202 5.202 0 0 1 770.4 41.4 A 4.69 4.69 0 0 1 771.878 37.888 A 5.908 5.908 0 0 1 772.2 37.6 Q 773.703 36.347 777.02 35.234 A 39.646 39.646 0 0 1 778.4 34.8 L 784.1 33 A 11.225 11.225 0 0 0 786.615 31.814 Q 789.7 29.811 789.7 26.1 Q 789.7 24.2 789 22.35 A 17.658 17.658 0 0 0 787.601 19.49 A 20.365 20.365 0 0 0 787.1 18.7 L 774 16.4 A 29.161 29.161 0 0 1 772.045 15.98 Q 769.261 15.273 768.2 14.25 A 4.547 4.547 0 0 1 767.108 12.66 A 4.433 4.433 0 0 1 766.8 11 A 6.044 6.044 0 0 1 766.965 9.543 A 4.034 4.034 0 0 1 768.2 7.45 A 6.827 6.827 0 0 1 769.522 6.541 Q 770.171 6.192 770.969 5.907 A 15.436 15.436 0 0 1 772.3 5.5 A 18.665 18.665 0 0 1 775.344 6.059 Q 776.786 6.443 778.347 7.061 A 34.033 34.033 0 0 1 779.4 7.5 Q 783.3 9.2 786.9 12.1 Q 790.5 15 792.85 19 Q 795.2 23 795.2 27.8 A 13.32 13.32 0 0 1 794.071 33.416 Q 792.575 36.676 789.093 38.705 A 19.537 19.537 0 0 1 785.2 40.4 Z M 770.681 73.385 A 6.011 6.011 0 0 0 775.1 75.2 A 6.514 6.514 0 0 0 777.05 74.914 A 6.285 6.285 0 0 0 779.7 73.25 A 8.179 8.179 0 0 0 779.715 73.235 A 6.312 6.312 0 0 0 781.6 68.7 A 6.271 6.271 0 0 0 781.147 66.316 A 6.734 6.734 0 0 0 779.7 64.15 A 7.586 7.586 0 0 0 779.61 64.06 A 6.172 6.172 0 0 0 775.1 62.2 A 7.356 7.356 0 0 0 774.911 62.202 A 6.008 6.008 0 0 0 770.55 64.15 Q 768.7 66.1 768.7 68.7 Q 768.7 71.3 770.55 73.25 A 7.26 7.26 0 0 0 770.681 73.385 Z" id="15" vector-effect="non-scaling-stroke"/></g></svg>